G04*
G04 #@! TF.GenerationSoftware,Altium Limited,Altium Designer,25.6.2 (33)*
G04*
G04 Layer_Color=128*
%FSLAX44Y44*%
%MOMM*%
G71*
G04*
G04 #@! TF.SameCoordinates,51367FFA-E2D0-4688-BCD1-F7C66F822469*
G04*
G04*
G04 #@! TF.FilePolarity,Positive*
G04*
G01*
G75*
%ADD92C,0.1270*%
D92*
X693180Y192520D02*
X708180D01*
X700680Y185020D02*
Y200020D01*
X743980Y321020D02*
X758980D01*
X751480Y313520D02*
Y328520D01*
X743980Y256020D02*
X758980D01*
X751480Y248520D02*
Y263520D01*
X463980Y362020D02*
X478980D01*
X471480Y354520D02*
Y369520D01*
X463980Y285820D02*
X478980D01*
X471480Y278320D02*
Y293320D01*
X743980Y192020D02*
X758980D01*
X751480Y184520D02*
Y199520D01*
X634000Y54250D02*
X642000D01*
X638000Y50250D02*
Y58250D01*
X634000Y104250D02*
X642000D01*
X638000Y100250D02*
Y108250D01*
X803250Y300250D02*
X822250D01*
X812750Y290750D02*
Y309750D01*
X310000Y128000D02*
X320000D01*
X315000Y123000D02*
Y133000D01*
X310000Y32001D02*
X320000D01*
X315000Y27001D02*
Y37001D01*
X236000Y105000D02*
X244000D01*
X240000Y101000D02*
Y109000D01*
X803250Y217650D02*
X822250D01*
X812750Y208150D02*
Y227150D01*
X879000Y375000D02*
X911000D01*
X895000Y359000D02*
Y391000D01*
X236000Y55001D02*
X244000D01*
X240000Y51001D02*
Y59001D01*
X236000Y80000D02*
X244000D01*
X240000Y76000D02*
Y84001D01*
X50500Y53000D02*
X59500D01*
X55000Y48500D02*
Y57500D01*
X75500Y53000D02*
X84500D01*
X80000Y48500D02*
Y57500D01*
X100500Y53000D02*
X109500D01*
X105000Y48500D02*
Y57500D01*
X75500Y107000D02*
X84500D01*
X80000Y102500D02*
Y111500D01*
X100500Y107000D02*
X109500D01*
X105000Y102500D02*
Y111500D01*
X50500Y107000D02*
X59500D01*
X55000Y102500D02*
Y111500D01*
X104000Y80000D02*
X116000D01*
X110000Y74000D02*
Y86000D01*
X9000Y25000D02*
X41000D01*
X25000Y9000D02*
Y41000D01*
X9000Y375000D02*
X41000D01*
X25000Y359000D02*
Y391000D01*
X545000Y80000D02*
X555000D01*
X550000Y75000D02*
Y85000D01*
X486000Y130800D02*
X512400D01*
X499200Y117600D02*
Y144000D01*
X587600Y29200D02*
X614000D01*
X600800Y16000D02*
Y42400D01*
X545000Y54600D02*
X555000D01*
X550000Y49600D02*
Y59600D01*
X58900Y225250D02*
X66100D01*
X62500Y221650D02*
Y228850D01*
X58900Y285250D02*
X66100D01*
X62500Y281650D02*
Y288850D01*
X58900Y245250D02*
X66100D01*
X62500Y241650D02*
Y248850D01*
X58900Y305250D02*
X66100D01*
X62500Y301650D02*
Y308850D01*
X58900Y265250D02*
X66100D01*
X62500Y261650D02*
Y268850D01*
X58900Y325250D02*
X66100D01*
X62500Y321650D02*
Y328850D01*
X277226Y314750D02*
X280274D01*
X278750Y313226D02*
Y316274D01*
X455026Y263950D02*
X458074D01*
X456550Y262426D02*
Y265474D01*
X429626Y9950D02*
X432674D01*
X431150Y8426D02*
Y11474D01*
X378826Y213150D02*
X381874D01*
X380350Y211626D02*
Y214674D01*
X378826Y111550D02*
X381874D01*
X380350Y110026D02*
Y113074D01*
X404226Y60750D02*
X407274D01*
X405750Y59226D02*
Y62274D01*
X378826Y9950D02*
X381874D01*
X380350Y8426D02*
Y11474D01*
X353426Y263950D02*
X356474D01*
X354950Y262426D02*
Y265474D01*
X328026Y111550D02*
X331074D01*
X329550Y110026D02*
Y113074D01*
X353426Y60750D02*
X356474D01*
X354950Y59226D02*
Y62274D01*
X328026Y9950D02*
X331074D01*
X329550Y8426D02*
Y11474D01*
X277226Y111550D02*
X280274D01*
X278750Y110026D02*
Y113074D01*
X302626Y60750D02*
X305674D01*
X304150Y59226D02*
Y62274D01*
X277226Y9950D02*
X280274D01*
X278750Y8426D02*
Y11474D01*
X226426Y213150D02*
X229474D01*
X227950Y211626D02*
Y214674D01*
X226426Y9950D02*
X229474D01*
X227950Y8426D02*
Y11474D01*
X201026Y263950D02*
X204074D01*
X202550Y262426D02*
Y265474D01*
X175626Y213150D02*
X178674D01*
X177150Y211626D02*
Y214674D01*
X201026Y162350D02*
X204074D01*
X202550Y160826D02*
Y163874D01*
X175626Y111550D02*
X178674D01*
X177150Y110026D02*
Y113074D01*
X175626Y9950D02*
X178674D01*
X177150Y8426D02*
Y11474D01*
X124826Y213150D02*
X127874D01*
X126350Y211626D02*
Y214674D01*
X124826Y9950D02*
X127874D01*
X126350Y8426D02*
Y11474D01*
X311226Y231750D02*
X314274D01*
X312750Y230226D02*
Y233274D01*
X383476Y288750D02*
X386524D01*
X385000Y287226D02*
Y290274D01*
X276226Y274500D02*
X279274D01*
X277750Y272976D02*
Y276024D01*
X367226Y159750D02*
X370274D01*
X368750Y158226D02*
Y161274D01*
X382226Y136250D02*
X385274D01*
X383750Y134726D02*
Y137774D01*
X238476Y144750D02*
X241524D01*
X240000Y143226D02*
Y146274D01*
X449676Y18000D02*
X452724D01*
X451200Y16476D02*
Y19524D01*
X342476Y175000D02*
X345524D01*
X344000Y173476D02*
Y176524D01*
X412976Y319000D02*
X416024D01*
X414500Y317476D02*
Y320524D01*
X425726Y226000D02*
X428774D01*
X427250Y224476D02*
Y227524D01*
X408500Y273820D02*
X410500D01*
X409500Y272820D02*
Y274820D01*
X408500Y284820D02*
X410500D01*
X409500Y283820D02*
Y285820D01*
X307550Y304300D02*
X309550D01*
X308550Y303300D02*
Y305300D01*
X295950Y304250D02*
X297950D01*
X296950Y303250D02*
Y305250D01*
X295950Y292700D02*
X297950D01*
X296950Y291700D02*
Y293700D01*
X307550Y292700D02*
X309550D01*
X308550Y291700D02*
Y293700D01*
X301750Y298500D02*
X303750D01*
X302750Y297500D02*
Y299500D01*
X339726Y220250D02*
X342774D01*
X341250Y218726D02*
Y221774D01*
X270851Y222000D02*
X273899D01*
X272375Y220476D02*
Y223524D01*
X295476Y249000D02*
X298524D01*
X297000Y247476D02*
Y250524D01*
X414726Y29500D02*
X417774D01*
X416250Y27976D02*
Y31024D01*
X137476Y233500D02*
X140524D01*
X139000Y231976D02*
Y235024D01*
X310976Y190000D02*
X314024D01*
X312500Y188476D02*
Y191524D01*
X259726Y169000D02*
X262774D01*
X261250Y167476D02*
Y170524D01*
X125976Y157750D02*
X129024D01*
X127500Y156226D02*
Y159274D01*
X214476Y95000D02*
X217524D01*
X216000Y93476D02*
Y96524D01*
X214476Y76417D02*
X217524D01*
X216000Y74893D02*
Y77941D01*
X214476Y39250D02*
X217524D01*
X216000Y37726D02*
Y40774D01*
X214476Y57833D02*
X217524D01*
X216000Y56309D02*
Y59357D01*
X194476Y69250D02*
X197524D01*
X196000Y67726D02*
Y70774D01*
X291726Y274250D02*
X294774D01*
X293250Y272726D02*
Y275774D01*
X150476Y140000D02*
X153524D01*
X152000Y138476D02*
Y141524D01*
X333226Y66750D02*
X336274D01*
X334750Y65226D02*
Y68274D01*
X242316Y334000D02*
X245364D01*
X243840Y332476D02*
Y335524D01*
X132226Y178000D02*
X135274D01*
X133750Y176476D02*
Y179524D01*
X432226Y104500D02*
X435274D01*
X433750Y102976D02*
Y106024D01*
X177726Y140000D02*
X180774D01*
X179250Y138476D02*
Y141524D01*
X305476Y146500D02*
X308524D01*
X307000Y144976D02*
Y148024D01*
X357976Y284500D02*
X361024D01*
X359500Y282976D02*
Y286024D01*
X359476Y311750D02*
X362524D01*
X361000Y310226D02*
Y313274D01*
X315976Y284500D02*
X319024D01*
X317500Y282976D02*
Y286024D01*
M02*
