G04*
G04 #@! TF.GenerationSoftware,Altium Limited,Altium Designer,25.6.2 (33)*
G04*
G04 Layer_Color=255*
%FSLAX44Y44*%
%MOMM*%
G71*
G04*
G04 #@! TF.SameCoordinates,51367FFA-E2D0-4688-BCD1-F7C66F822469*
G04*
G04*
G04 #@! TF.FilePolarity,Positive*
G04*
G01*
G75*
G04:AMPARAMS|DCode=13|XSize=0.95mm|YSize=0.9mm|CornerRadius=0.1125mm|HoleSize=0mm|Usage=FLASHONLY|Rotation=90.000|XOffset=0mm|YOffset=0mm|HoleType=Round|Shape=RoundedRectangle|*
%AMROUNDEDRECTD13*
21,1,0.9500,0.6750,0,0,90.0*
21,1,0.7250,0.9000,0,0,90.0*
1,1,0.2250,0.3375,0.3625*
1,1,0.2250,0.3375,-0.3625*
1,1,0.2250,-0.3375,-0.3625*
1,1,0.2250,-0.3375,0.3625*
%
%ADD13ROUNDEDRECTD13*%
G04:AMPARAMS|DCode=14|XSize=0.55mm|YSize=1mm|CornerRadius=0.1375mm|HoleSize=0mm|Usage=FLASHONLY|Rotation=180.000|XOffset=0mm|YOffset=0mm|HoleType=Round|Shape=RoundedRectangle|*
%AMROUNDEDRECTD14*
21,1,0.5500,0.7250,0,0,180.0*
21,1,0.2750,1.0000,0,0,180.0*
1,1,0.2750,-0.1375,0.3625*
1,1,0.2750,0.1375,0.3625*
1,1,0.2750,0.1375,-0.3625*
1,1,0.2750,-0.1375,-0.3625*
%
%ADD14ROUNDEDRECTD14*%
G04:AMPARAMS|DCode=15|XSize=0.65mm|YSize=1.3mm|CornerRadius=0.1625mm|HoleSize=0mm|Usage=FLASHONLY|Rotation=0.000|XOffset=0mm|YOffset=0mm|HoleType=Round|Shape=RoundedRectangle|*
%AMROUNDEDRECTD15*
21,1,0.6500,0.9750,0,0,0.0*
21,1,0.3250,1.3000,0,0,0.0*
1,1,0.3250,0.1625,-0.4875*
1,1,0.3250,-0.1625,-0.4875*
1,1,0.3250,-0.1625,0.4875*
1,1,0.3250,0.1625,0.4875*
%
%ADD15ROUNDEDRECTD15*%
G04:AMPARAMS|DCode=16|XSize=0.85mm|YSize=0.65mm|CornerRadius=0.0813mm|HoleSize=0mm|Usage=FLASHONLY|Rotation=90.000|XOffset=0mm|YOffset=0mm|HoleType=Round|Shape=RoundedRectangle|*
%AMROUNDEDRECTD16*
21,1,0.8500,0.4875,0,0,90.0*
21,1,0.6875,0.6500,0,0,90.0*
1,1,0.1625,0.2438,0.3438*
1,1,0.1625,0.2438,-0.3438*
1,1,0.1625,-0.2438,-0.3438*
1,1,0.1625,-0.2438,0.3438*
%
%ADD16ROUNDEDRECTD16*%
G04:AMPARAMS|DCode=17|XSize=0.3mm|YSize=0.45mm|CornerRadius=0.0375mm|HoleSize=0mm|Usage=FLASHONLY|Rotation=90.000|XOffset=0mm|YOffset=0mm|HoleType=Round|Shape=RoundedRectangle|*
%AMROUNDEDRECTD17*
21,1,0.3000,0.3750,0,0,90.0*
21,1,0.2250,0.4500,0,0,90.0*
1,1,0.0750,0.1875,0.1125*
1,1,0.0750,0.1875,-0.1125*
1,1,0.0750,-0.1875,-0.1125*
1,1,0.0750,-0.1875,0.1125*
%
%ADD17ROUNDEDRECTD17*%
G04:AMPARAMS|DCode=18|XSize=1.6mm|YSize=0.96mm|CornerRadius=0.12mm|HoleSize=0mm|Usage=FLASHONLY|Rotation=90.000|XOffset=0mm|YOffset=0mm|HoleType=Round|Shape=RoundedRectangle|*
%AMROUNDEDRECTD18*
21,1,1.6000,0.7200,0,0,90.0*
21,1,1.3600,0.9600,0,0,90.0*
1,1,0.2400,0.3600,0.6800*
1,1,0.2400,0.3600,-0.6800*
1,1,0.2400,-0.3600,-0.6800*
1,1,0.2400,-0.3600,0.6800*
%
%ADD18ROUNDEDRECTD18*%
G04:AMPARAMS|DCode=19|XSize=0.85mm|YSize=0.65mm|CornerRadius=0.0813mm|HoleSize=0mm|Usage=FLASHONLY|Rotation=0.000|XOffset=0mm|YOffset=0mm|HoleType=Round|Shape=RoundedRectangle|*
%AMROUNDEDRECTD19*
21,1,0.8500,0.4875,0,0,0.0*
21,1,0.6875,0.6500,0,0,0.0*
1,1,0.1625,0.3438,-0.2438*
1,1,0.1625,-0.3438,-0.2438*
1,1,0.1625,-0.3438,0.2438*
1,1,0.1625,0.3438,0.2438*
%
%ADD19ROUNDEDRECTD19*%
G04:AMPARAMS|DCode=20|XSize=0.95mm|YSize=0.9mm|CornerRadius=0.1125mm|HoleSize=0mm|Usage=FLASHONLY|Rotation=0.000|XOffset=0mm|YOffset=0mm|HoleType=Round|Shape=RoundedRectangle|*
%AMROUNDEDRECTD20*
21,1,0.9500,0.6750,0,0,0.0*
21,1,0.7250,0.9000,0,0,0.0*
1,1,0.2250,0.3625,-0.3375*
1,1,0.2250,-0.3625,-0.3375*
1,1,0.2250,-0.3625,0.3375*
1,1,0.2250,0.3625,0.3375*
%
%ADD20ROUNDEDRECTD20*%
G04:AMPARAMS|DCode=21|XSize=0.8mm|YSize=1mm|CornerRadius=0.2mm|HoleSize=0mm|Usage=FLASHONLY|Rotation=180.000|XOffset=0mm|YOffset=0mm|HoleType=Round|Shape=RoundedRectangle|*
%AMROUNDEDRECTD21*
21,1,0.8000,0.6000,0,0,180.0*
21,1,0.4000,1.0000,0,0,180.0*
1,1,0.4000,-0.2000,0.3000*
1,1,0.4000,0.2000,0.3000*
1,1,0.4000,0.2000,-0.3000*
1,1,0.4000,-0.2000,-0.3000*
%
%ADD21ROUNDEDRECTD21*%
G04:AMPARAMS|DCode=22|XSize=3mm|YSize=1.5mm|CornerRadius=0.1875mm|HoleSize=0mm|Usage=FLASHONLY|Rotation=270.000|XOffset=0mm|YOffset=0mm|HoleType=Round|Shape=RoundedRectangle|*
%AMROUNDEDRECTD22*
21,1,3.0000,1.1250,0,0,270.0*
21,1,2.6250,1.5000,0,0,270.0*
1,1,0.3750,-0.5625,-1.3125*
1,1,0.3750,-0.5625,1.3125*
1,1,0.3750,0.5625,1.3125*
1,1,0.3750,0.5625,-1.3125*
%
%ADD22ROUNDEDRECTD22*%
G04:AMPARAMS|DCode=23|XSize=2mm|YSize=1mm|CornerRadius=0.125mm|HoleSize=0mm|Usage=FLASHONLY|Rotation=180.000|XOffset=0mm|YOffset=0mm|HoleType=Round|Shape=RoundedRectangle|*
%AMROUNDEDRECTD23*
21,1,2.0000,0.7500,0,0,180.0*
21,1,1.7500,1.0000,0,0,180.0*
1,1,0.2500,-0.8750,0.3750*
1,1,0.2500,0.8750,0.3750*
1,1,0.2500,0.8750,-0.3750*
1,1,0.2500,-0.8750,-0.3750*
%
%ADD23ROUNDEDRECTD23*%
G04:AMPARAMS|DCode=24|XSize=2.3mm|YSize=6mm|CornerRadius=0.1725mm|HoleSize=0mm|Usage=FLASHONLY|Rotation=0.000|XOffset=0mm|YOffset=0mm|HoleType=Round|Shape=RoundedRectangle|*
%AMROUNDEDRECTD24*
21,1,2.3000,5.6550,0,0,0.0*
21,1,1.9550,6.0000,0,0,0.0*
1,1,0.3450,0.9775,-2.8275*
1,1,0.3450,-0.9775,-2.8275*
1,1,0.3450,-0.9775,2.8275*
1,1,0.3450,0.9775,2.8275*
%
%ADD24ROUNDEDRECTD24*%
G04:AMPARAMS|DCode=25|XSize=1.66mm|YSize=1.66mm|CornerRadius=0.1245mm|HoleSize=0mm|Usage=FLASHONLY|Rotation=0.000|XOffset=0mm|YOffset=0mm|HoleType=Round|Shape=RoundedRectangle|*
%AMROUNDEDRECTD25*
21,1,1.6600,1.4110,0,0,0.0*
21,1,1.4110,1.6600,0,0,0.0*
1,1,0.2490,0.7055,-0.7055*
1,1,0.2490,-0.7055,-0.7055*
1,1,0.2490,-0.7055,0.7055*
1,1,0.2490,0.7055,0.7055*
%
%ADD25ROUNDEDRECTD25*%
G04:AMPARAMS|DCode=26|XSize=0.25mm|YSize=0.8mm|CornerRadius=0.0625mm|HoleSize=0mm|Usage=FLASHONLY|Rotation=0.000|XOffset=0mm|YOffset=0mm|HoleType=Round|Shape=RoundedRectangle|*
%AMROUNDEDRECTD26*
21,1,0.2500,0.6750,0,0,0.0*
21,1,0.1250,0.8000,0,0,0.0*
1,1,0.1250,0.0625,-0.3375*
1,1,0.1250,-0.0625,-0.3375*
1,1,0.1250,-0.0625,0.3375*
1,1,0.1250,0.0625,0.3375*
%
%ADD26ROUNDEDRECTD26*%
G04:AMPARAMS|DCode=27|XSize=0.25mm|YSize=0.8mm|CornerRadius=0.0625mm|HoleSize=0mm|Usage=FLASHONLY|Rotation=90.000|XOffset=0mm|YOffset=0mm|HoleType=Round|Shape=RoundedRectangle|*
%AMROUNDEDRECTD27*
21,1,0.2500,0.6750,0,0,90.0*
21,1,0.1250,0.8000,0,0,90.0*
1,1,0.1250,0.3375,0.0625*
1,1,0.1250,0.3375,-0.0625*
1,1,0.1250,-0.3375,-0.0625*
1,1,0.1250,-0.3375,0.0625*
%
%ADD27ROUNDEDRECTD27*%
G04:AMPARAMS|DCode=28|XSize=2.3mm|YSize=1.8mm|CornerRadius=0.225mm|HoleSize=0mm|Usage=FLASHONLY|Rotation=270.000|XOffset=0mm|YOffset=0mm|HoleType=Round|Shape=RoundedRectangle|*
%AMROUNDEDRECTD28*
21,1,2.3000,1.3500,0,0,270.0*
21,1,1.8500,1.8000,0,0,270.0*
1,1,0.4500,-0.6750,-0.9250*
1,1,0.4500,-0.6750,0.9250*
1,1,0.4500,0.6750,0.9250*
1,1,0.4500,0.6750,-0.9250*
%
%ADD28ROUNDEDRECTD28*%
G04:AMPARAMS|DCode=29|XSize=1.3mm|YSize=1.2mm|CornerRadius=0.15mm|HoleSize=0mm|Usage=FLASHONLY|Rotation=90.000|XOffset=0mm|YOffset=0mm|HoleType=Round|Shape=RoundedRectangle|*
%AMROUNDEDRECTD29*
21,1,1.3000,0.9000,0,0,90.0*
21,1,1.0000,1.2000,0,0,90.0*
1,1,0.3000,0.4500,0.5000*
1,1,0.3000,0.4500,-0.5000*
1,1,0.3000,-0.4500,-0.5000*
1,1,0.3000,-0.4500,0.5000*
%
%ADD29ROUNDEDRECTD29*%
G04:AMPARAMS|DCode=30|XSize=0.5mm|YSize=0.85mm|CornerRadius=0.0625mm|HoleSize=0mm|Usage=FLASHONLY|Rotation=90.000|XOffset=0mm|YOffset=0mm|HoleType=Round|Shape=RoundedRectangle|*
%AMROUNDEDRECTD30*
21,1,0.5000,0.7250,0,0,90.0*
21,1,0.3750,0.8500,0,0,90.0*
1,1,0.1250,0.3625,0.1875*
1,1,0.1250,0.3625,-0.1875*
1,1,0.1250,-0.3625,-0.1875*
1,1,0.1250,-0.3625,0.1875*
%
%ADD30ROUNDEDRECTD30*%
G04:AMPARAMS|DCode=31|XSize=4.41mm|YSize=4.55mm|CornerRadius=0.2205mm|HoleSize=0mm|Usage=FLASHONLY|Rotation=90.000|XOffset=0mm|YOffset=0mm|HoleType=Round|Shape=RoundedRectangle|*
%AMROUNDEDRECTD31*
21,1,4.4100,4.1090,0,0,90.0*
21,1,3.9690,4.5500,0,0,90.0*
1,1,0.4410,2.0545,1.9845*
1,1,0.4410,2.0545,-1.9845*
1,1,0.4410,-2.0545,-1.9845*
1,1,0.4410,-2.0545,1.9845*
%
%ADD31ROUNDEDRECTD31*%
%ADD32O,1.4500X0.6000*%
%ADD74C,2.6000*%
G04:AMPARAMS|DCode=75|XSize=1.4mm|YSize=1.4mm|CornerRadius=0.175mm|HoleSize=0mm|Usage=FLASHONLY|Rotation=90.000|XOffset=0mm|YOffset=0mm|HoleType=Round|Shape=RoundedRectangle|*
%AMROUNDEDRECTD75*
21,1,1.4000,1.0500,0,0,90.0*
21,1,1.0500,1.4000,0,0,90.0*
1,1,0.3500,0.5250,0.5250*
1,1,0.3500,0.5250,-0.5250*
1,1,0.3500,-0.5250,-0.5250*
1,1,0.3500,-0.5250,0.5250*
%
%ADD75ROUNDEDRECTD75*%
%ADD76C,1.4000*%
G04:AMPARAMS|DCode=77|XSize=3.2mm|YSize=3.2mm|CornerRadius=0.8mm|HoleSize=0mm|Usage=FLASHONLY|Rotation=270.000|XOffset=0mm|YOffset=0mm|HoleType=Round|Shape=RoundedRectangle|*
%AMROUNDEDRECTD77*
21,1,3.2000,1.6000,0,0,270.0*
21,1,1.6000,3.2000,0,0,270.0*
1,1,1.6000,-0.8000,-0.8000*
1,1,1.6000,-0.8000,0.8000*
1,1,1.6000,0.8000,0.8000*
1,1,1.6000,0.8000,-0.8000*
%
%ADD77ROUNDEDRECTD77*%
%ADD78O,1.8000X2.4000*%
%ADD79O,1.5000X2.0000*%
%ADD80C,3.2000*%
%ADD81C,1.3000*%
G04:AMPARAMS|DCode=82|XSize=1.6mm|YSize=1.6mm|CornerRadius=0.4mm|HoleSize=0mm|Usage=FLASHONLY|Rotation=90.000|XOffset=0mm|YOffset=0mm|HoleType=Round|Shape=RoundedRectangle|*
%AMROUNDEDRECTD82*
21,1,1.6000,0.8000,0,0,90.0*
21,1,0.8000,1.6000,0,0,90.0*
1,1,0.8000,0.4000,0.4000*
1,1,0.8000,0.4000,-0.4000*
1,1,0.8000,-0.4000,-0.4000*
1,1,0.8000,-0.4000,0.4000*
%
%ADD82ROUNDEDRECTD82*%
%ADD83C,4.0000*%
%ADD84C,1.6000*%
G04:AMPARAMS|DCode=85|XSize=1.5mm|YSize=1.5mm|CornerRadius=0.1875mm|HoleSize=0mm|Usage=FLASHONLY|Rotation=180.000|XOffset=0mm|YOffset=0mm|HoleType=Round|Shape=RoundedRectangle|*
%AMROUNDEDRECTD85*
21,1,1.5000,1.1250,0,0,180.0*
21,1,1.1250,1.5000,0,0,180.0*
1,1,0.3750,-0.5625,0.5625*
1,1,0.3750,0.5625,0.5625*
1,1,0.3750,0.5625,-0.5625*
1,1,0.3750,-0.5625,-0.5625*
%
%ADD85ROUNDEDRECTD85*%
%ADD86C,1.5000*%
D13*
X383750Y148000D02*
D03*
X368750D02*
D03*
X354250Y190000D02*
D03*
X339250D02*
D03*
X313500Y171500D02*
D03*
X412500Y303750D02*
D03*
X397500D02*
D03*
X346250Y282000D02*
D03*
Y297000D02*
D03*
X253000Y274000D02*
D03*
X369250Y190000D02*
D03*
X324250D02*
D03*
X312750Y220000D02*
D03*
X298500Y156500D02*
D03*
X297750Y205000D02*
D03*
X253000Y289000D02*
D03*
X127500Y147500D02*
D03*
X268000Y274000D02*
D03*
X297750Y220000D02*
D03*
X142500Y147500D02*
D03*
X268000Y289000D02*
D03*
X312750Y205000D02*
D03*
X313500Y156500D02*
D03*
X331250Y297000D02*
D03*
Y282000D02*
D03*
X298500Y171500D02*
D03*
D14*
X333750Y148000D02*
D03*
X343250D02*
D03*
X352750D02*
D03*
Y175000D02*
D03*
X333750D02*
D03*
X350500Y204750D02*
D03*
X341000Y231750D02*
D03*
X272250D02*
D03*
X350500D02*
D03*
X281750D02*
D03*
X262750D02*
D03*
X281750Y204750D02*
D03*
X262750D02*
D03*
X331500Y231750D02*
D03*
Y204750D02*
D03*
D15*
X451200Y29750D02*
D03*
X425800D02*
D03*
Y92750D02*
D03*
X451200D02*
D03*
X438500Y29750D02*
D03*
D16*
X223500Y130000D02*
D03*
X418000Y225750D02*
D03*
X403000D02*
D03*
X346250Y312000D02*
D03*
X261500Y156500D02*
D03*
X354250Y251750D02*
D03*
X208500Y130000D02*
D03*
X369250Y251750D02*
D03*
X246500Y156500D02*
D03*
X193500Y130000D02*
D03*
X178500D02*
D03*
X331250Y312000D02*
D03*
X389000Y30250D02*
D03*
X404000D02*
D03*
X266750Y189750D02*
D03*
X281750D02*
D03*
X324250Y264000D02*
D03*
X339250D02*
D03*
D17*
X419250Y272820D02*
D03*
Y279320D02*
D03*
Y285820D02*
D03*
X399750Y272820D02*
D03*
Y279320D02*
D03*
Y285820D02*
D03*
D18*
X409500Y279320D02*
D03*
D19*
X418000Y255750D02*
D03*
Y240750D02*
D03*
X403000D02*
D03*
Y255750D02*
D03*
X433000Y240750D02*
D03*
Y255750D02*
D03*
Y270820D02*
D03*
Y285820D02*
D03*
X246750Y222000D02*
D03*
X283500Y249000D02*
D03*
X369250Y266750D02*
D03*
Y281750D02*
D03*
X231500Y156500D02*
D03*
Y171500D02*
D03*
X283500Y264000D02*
D03*
X142500Y162500D02*
D03*
Y177500D02*
D03*
X451250Y111250D02*
D03*
Y126250D02*
D03*
X246750Y207000D02*
D03*
X369250Y311750D02*
D03*
Y296750D02*
D03*
D20*
X433000Y318750D02*
D03*
Y303750D02*
D03*
X309250Y249000D02*
D03*
X246500Y171600D02*
D03*
X369250Y217000D02*
D03*
X281750Y156500D02*
D03*
X238000Y289000D02*
D03*
X369250Y232000D02*
D03*
X238000Y304000D02*
D03*
X281750Y171500D02*
D03*
X246500Y186600D02*
D03*
X309250Y264000D02*
D03*
D21*
X405500Y45500D02*
D03*
X387500D02*
D03*
X396500Y67500D02*
D03*
D22*
X194750Y91750D02*
D03*
X195500Y44500D02*
D03*
X151500D02*
D03*
X150750Y91750D02*
D03*
D23*
X261500Y303500D02*
D03*
Y335500D02*
D03*
D24*
X156000Y233500D02*
D03*
Y334000D02*
D03*
D25*
X302750Y298500D02*
D03*
D26*
X295250Y313000D02*
D03*
X305250Y284000D02*
D03*
X300250D02*
D03*
X295250D02*
D03*
X310250D02*
D03*
Y313000D02*
D03*
X305250D02*
D03*
X300250D02*
D03*
D27*
X288250Y306000D02*
D03*
Y296000D02*
D03*
Y301000D02*
D03*
Y291000D02*
D03*
X317250D02*
D03*
Y296000D02*
D03*
Y301000D02*
D03*
Y306000D02*
D03*
D28*
X333000Y346000D02*
D03*
X296000D02*
D03*
D29*
X243750Y363750D02*
D03*
X275750D02*
D03*
D30*
X105865Y148500D02*
D03*
Y161200D02*
D03*
Y173900D02*
D03*
Y186600D02*
D03*
D31*
X66365Y167550D02*
D03*
D32*
X159750Y186600D02*
D03*
Y173900D02*
D03*
Y161200D02*
D03*
Y148500D02*
D03*
X214250Y186600D02*
D03*
Y173900D02*
D03*
Y161200D02*
D03*
Y148500D02*
D03*
D74*
X700680Y192520D02*
D03*
X751480Y321020D02*
D03*
Y256020D02*
D03*
X471480Y362020D02*
D03*
Y285820D02*
D03*
X751480Y192020D02*
D03*
D75*
X638000Y54250D02*
D03*
D76*
Y104250D02*
D03*
D77*
X812750Y300250D02*
D03*
D78*
X315000Y128000D02*
D03*
Y32001D02*
D03*
D79*
X240000Y105000D02*
D03*
Y55001D02*
D03*
Y80000D02*
D03*
D80*
X812750Y217649D02*
D03*
D81*
X55000Y53000D02*
D03*
X80000D02*
D03*
X105000D02*
D03*
X80000Y107000D02*
D03*
X105000D02*
D03*
X55000D02*
D03*
D82*
X550000Y80000D02*
D03*
D83*
X499200Y130800D02*
D03*
X600800Y29200D02*
D03*
D84*
X550000Y54600D02*
D03*
D85*
X62500Y225250D02*
D03*
D86*
Y285250D02*
D03*
Y245250D02*
D03*
Y305250D02*
D03*
Y265250D02*
D03*
Y325250D02*
D03*
M02*
