M48
;Layer_Color=9474304
;FILE_FORMAT=4:4
METRIC,LZ
;TYPE=PLATED
T01F00S00C0.2000
T02F00S00C0.3048
T03F00S00C0.7200
T04F00S00C0.8000
T06F00S00C0.9000
T07F00S00C1.0000
T09F00S00C1.5000
T10F00S00C1.9000
T11F00S00C2.6400
%
T01
X0029695Y002927
Y0030425
X0030275Y002985
X0030855Y002927
Y003043
X004095Y0028482
Y0027382
T02
X0012635Y0000995
X0017715
X0022795
X00216Y0003925
Y00057833
Y00076417
Y00095
X00196Y0006925
X0017715Y0011155
X0017925Y0014
X00152
X001275Y0015775
X0013375Y00178
X0012635Y0021315
X00139Y002335
X0017715Y0021315
X0022795
X0023775Y001925
X0024Y0014475
X0027625Y00156
X00307Y001465
X00344Y00175
X00355Y002045
X003035Y0021025
X0028525Y002225
X00297Y00249
X0029325Y0027425
X0027775Y002745
X003175Y002845
X003575Y00286
X0035425Y0026825
X00385Y0028875
X003585Y0031575
X004145Y00319
X0040575Y0036555
X0045655Y0026395
X0042725Y00226
X0042525Y0020525
X00394278Y00169528
X0038375Y0013975
Y0012475
X004055Y0009725
X0040575Y0006075
X0035495
X0030415
X0032955Y0000995
X0038035
X0027875
X003385Y00109
X0043115Y0011155
X004512Y001065
X0046095Y0003325
X0020255Y0016235
Y0026395
X0024384Y00334
T03
X000625Y0022525
Y0024525
Y0026525
Y0028525
Y0030525
Y0032525
T04
X00638Y0005425
Y0010425
T06
X00105Y00053
Y00107
X0008
X00055
Y00053
X0008
T07
X0055Y000546
Y0008
T09
X0070068Y0019252
X0075148Y0019202
Y0025602
Y0032102
X0047148Y0028582
Y0036202
T10
X0081275Y0021765
Y0030025
T11
X006008Y000292
X004992Y001308
M30
