G04*
G04 #@! TF.GenerationSoftware,Altium Limited,Altium Designer,25.6.2 (33)*
G04*
G04 Layer_Color=16711935*
%FSLAX44Y44*%
%MOMM*%
G71*
G04*
G04 #@! TF.SameCoordinates,321F6365-E8C5-40D8-95C8-D2BB24AFB59A*
G04*
G04*
G04 #@! TF.FilePolarity,Negative*
G04*
G01*
G75*
%ADD60O,1.6500X2.1500*%
%ADD61O,1.9500X2.5500*%
%ADD62C,1.7500*%
%ADD63C,4.1500*%
G04:AMPARAMS|DCode=64|XSize=1.75mm|YSize=1.75mm|CornerRadius=0.475mm|HoleSize=0mm|Usage=FLASHONLY|Rotation=90.000|XOffset=0mm|YOffset=0mm|HoleType=Round|Shape=RoundedRectangle|*
%AMROUNDEDRECTD64*
21,1,1.7500,0.8000,0,0,90.0*
21,1,0.8000,1.7500,0,0,90.0*
1,1,0.9500,0.4000,0.4000*
1,1,0.9500,0.4000,-0.4000*
1,1,0.9500,-0.4000,-0.4000*
1,1,0.9500,-0.4000,0.4000*
%
%ADD64ROUNDEDRECTD64*%
%ADD65C,2.7500*%
G04:AMPARAMS|DCode=66|XSize=1.55mm|YSize=1.55mm|CornerRadius=0.25mm|HoleSize=0mm|Usage=FLASHONLY|Rotation=90.000|XOffset=0mm|YOffset=0mm|HoleType=Round|Shape=RoundedRectangle|*
%AMROUNDEDRECTD66*
21,1,1.5500,1.0500,0,0,90.0*
21,1,1.0500,1.5500,0,0,90.0*
1,1,0.5000,0.5250,0.5250*
1,1,0.5000,0.5250,-0.5250*
1,1,0.5000,-0.5250,-0.5250*
1,1,0.5000,-0.5250,0.5250*
%
%ADD66ROUNDEDRECTD66*%
%ADD67C,1.5500*%
G04:AMPARAMS|DCode=68|XSize=3.3016mm|YSize=3.3016mm|CornerRadius=0.8508mm|HoleSize=0mm|Usage=FLASHONLY|Rotation=270.000|XOffset=0mm|YOffset=0mm|HoleType=Round|Shape=RoundedRectangle|*
%AMROUNDEDRECTD68*
21,1,3.3016,1.6000,0,0,270.0*
21,1,1.6000,3.3016,0,0,270.0*
1,1,1.7016,-0.8000,-0.8000*
1,1,1.7016,-0.8000,0.8000*
1,1,1.7016,0.8000,0.8000*
1,1,1.7016,0.8000,-0.8000*
%
%ADD68ROUNDEDRECTD68*%
%ADD69C,3.3016*%
%ADD70C,0.1500*%
%ADD71C,1.4500*%
G04:AMPARAMS|DCode=72|XSize=1.65mm|YSize=1.65mm|CornerRadius=0.2625mm|HoleSize=0mm|Usage=FLASHONLY|Rotation=180.000|XOffset=0mm|YOffset=0mm|HoleType=Round|Shape=RoundedRectangle|*
%AMROUNDEDRECTD72*
21,1,1.6500,1.1250,0,0,180.0*
21,1,1.1250,1.6500,0,0,180.0*
1,1,0.5250,-0.5625,0.5625*
1,1,0.5250,0.5625,0.5625*
1,1,0.5250,0.5625,-0.5625*
1,1,0.5250,-0.5625,-0.5625*
%
%ADD72ROUNDEDRECTD72*%
%ADD73C,1.6500*%
D60*
X240000Y80000D02*
D03*
Y55001D02*
D03*
Y105000D02*
D03*
D61*
X315000Y32001D02*
D03*
Y128000D02*
D03*
D62*
X550000Y54600D02*
D03*
D63*
X600800Y29200D02*
D03*
X499200Y130800D02*
D03*
D64*
X550000Y80000D02*
D03*
D65*
X471480Y362020D02*
D03*
X700680Y192520D02*
D03*
X751480Y321020D02*
D03*
Y256020D02*
D03*
X471480Y285820D02*
D03*
X751480Y192020D02*
D03*
D66*
X638000Y54250D02*
D03*
D67*
Y104250D02*
D03*
D68*
X812750Y300250D02*
D03*
D69*
Y217649D02*
D03*
D70*
X895000Y375000D02*
D03*
X110000Y80000D02*
D03*
X25000Y25000D02*
D03*
Y375000D02*
D03*
D71*
X55000Y53000D02*
D03*
X80000D02*
D03*
X105000D02*
D03*
X80000Y107000D02*
D03*
X105000D02*
D03*
X55000D02*
D03*
D72*
X62500Y225250D02*
D03*
D73*
Y285250D02*
D03*
Y245250D02*
D03*
Y305250D02*
D03*
Y265250D02*
D03*
Y325250D02*
D03*
M02*
