G04*
G04 #@! TF.GenerationSoftware,Altium Limited,Altium Designer,25.6.2 (33)*
G04*
G04 Layer_Physical_Order=2*
G04 Layer_Color=16711680*
%FSLAX44Y44*%
%MOMM*%
G71*
G04*
G04 #@! TF.SameCoordinates,321F6365-E8C5-40D8-95C8-D2BB24AFB59A*
G04*
G04*
G04 #@! TF.FilePolarity,Positive*
G04*
G01*
G75*
G04:AMPARAMS|DCode=19|XSize=1.6mm|YSize=0.96mm|CornerRadius=0.12mm|HoleSize=0mm|Usage=FLASHONLY|Rotation=90.000|XOffset=0mm|YOffset=0mm|HoleType=Round|Shape=RoundedRectangle|*
%AMROUNDEDRECTD19*
21,1,1.6000,0.7200,0,0,90.0*
21,1,1.3600,0.9600,0,0,90.0*
1,1,0.2400,0.3600,0.6800*
1,1,0.2400,0.3600,-0.6800*
1,1,0.2400,-0.3600,-0.6800*
1,1,0.2400,-0.3600,0.6800*
%
%ADD19ROUNDEDRECTD19*%
G04:AMPARAMS|DCode=26|XSize=1.66mm|YSize=1.66mm|CornerRadius=0.1245mm|HoleSize=0mm|Usage=FLASHONLY|Rotation=0.000|XOffset=0mm|YOffset=0mm|HoleType=Round|Shape=RoundedRectangle|*
%AMROUNDEDRECTD26*
21,1,1.6600,1.4110,0,0,0.0*
21,1,1.4110,1.6600,0,0,0.0*
1,1,0.2490,0.7055,-0.7055*
1,1,0.2490,-0.7055,-0.7055*
1,1,0.2490,-0.7055,0.7055*
1,1,0.2490,0.7055,0.7055*
%
%ADD26ROUNDEDRECTD26*%
%ADD75C,0.2032*%
%ADD80O,1.5000X2.0000*%
%ADD81O,1.8000X2.4000*%
%ADD82C,1.6000*%
%ADD83C,4.0000*%
G04:AMPARAMS|DCode=84|XSize=1.6mm|YSize=1.6mm|CornerRadius=0.4mm|HoleSize=0mm|Usage=FLASHONLY|Rotation=90.000|XOffset=0mm|YOffset=0mm|HoleType=Round|Shape=RoundedRectangle|*
%AMROUNDEDRECTD84*
21,1,1.6000,0.8000,0,0,90.0*
21,1,0.8000,1.6000,0,0,90.0*
1,1,0.8000,0.4000,0.4000*
1,1,0.8000,0.4000,-0.4000*
1,1,0.8000,-0.4000,-0.4000*
1,1,0.8000,-0.4000,0.4000*
%
%ADD84ROUNDEDRECTD84*%
%ADD85C,2.6000*%
G04:AMPARAMS|DCode=86|XSize=1.4mm|YSize=1.4mm|CornerRadius=0.175mm|HoleSize=0mm|Usage=FLASHONLY|Rotation=90.000|XOffset=0mm|YOffset=0mm|HoleType=Round|Shape=RoundedRectangle|*
%AMROUNDEDRECTD86*
21,1,1.4000,1.0500,0,0,90.0*
21,1,1.0500,1.4000,0,0,90.0*
1,1,0.3500,0.5250,0.5250*
1,1,0.3500,0.5250,-0.5250*
1,1,0.3500,-0.5250,-0.5250*
1,1,0.3500,-0.5250,0.5250*
%
%ADD86ROUNDEDRECTD86*%
%ADD87C,1.4000*%
G04:AMPARAMS|DCode=88|XSize=3.2mm|YSize=3.2mm|CornerRadius=0.8mm|HoleSize=0mm|Usage=FLASHONLY|Rotation=270.000|XOffset=0mm|YOffset=0mm|HoleType=Round|Shape=RoundedRectangle|*
%AMROUNDEDRECTD88*
21,1,3.2000,1.6000,0,0,270.0*
21,1,1.6000,3.2000,0,0,270.0*
1,1,1.6000,-0.8000,-0.8000*
1,1,1.6000,-0.8000,0.8000*
1,1,1.6000,0.8000,0.8000*
1,1,1.6000,0.8000,-0.8000*
%
%ADD88ROUNDEDRECTD88*%
%ADD89C,3.2000*%
%ADD90C,1.3000*%
G04:AMPARAMS|DCode=91|XSize=1.5mm|YSize=1.5mm|CornerRadius=0.1875mm|HoleSize=0mm|Usage=FLASHONLY|Rotation=180.000|XOffset=0mm|YOffset=0mm|HoleType=Round|Shape=RoundedRectangle|*
%AMROUNDEDRECTD91*
21,1,1.5000,1.1250,0,0,180.0*
21,1,1.1250,1.5000,0,0,180.0*
1,1,0.3750,-0.5625,0.5625*
1,1,0.3750,0.5625,0.5625*
1,1,0.3750,0.5625,-0.5625*
1,1,0.3750,-0.5625,-0.5625*
%
%ADD91ROUNDEDRECTD91*%
%ADD92C,1.5000*%
%ADD93C,0.6096*%
%ADD94C,0.4500*%
G36*
X488000Y367970D02*
X486001Y367572D01*
X485251Y369381D01*
X483551Y371926D01*
X483366Y372110D01*
X473276Y362020D01*
X483366Y351930D01*
X483551Y352114D01*
X485251Y354659D01*
X486001Y356470D01*
X488001Y356072D01*
X488010Y236665D01*
X488010Y230457D01*
X458500Y200947D01*
Y108705D01*
X456500Y108307D01*
X456003Y109507D01*
X452996Y106500D01*
X456003Y103493D01*
X456500Y104693D01*
X458500Y104295D01*
Y83787D01*
Y69750D01*
X451065Y62316D01*
X419815D01*
X412229Y54729D01*
X412231Y6785D01*
X412231Y3453D01*
X410817Y2039D01*
X97250D01*
Y8838D01*
Y35001D01*
Y47076D01*
X97308Y47120D01*
X99250Y47762D01*
X100229Y46782D01*
X102001Y45760D01*
X103977Y45230D01*
X106023D01*
X107999Y45760D01*
X109771Y46782D01*
X111217Y48229D01*
X112240Y50001D01*
X112770Y51977D01*
Y54023D01*
X112240Y55999D01*
X111217Y57771D01*
X109771Y59218D01*
X107999Y60241D01*
X106023Y60770D01*
X103977D01*
X102001Y60241D01*
X100229Y59218D01*
X99250Y58238D01*
X97308Y58880D01*
X97250Y58924D01*
X97250Y101076D01*
X97308Y101120D01*
X99250Y101762D01*
X100229Y100782D01*
X102001Y99760D01*
X103977Y99230D01*
X106023D01*
X107999Y99760D01*
X109771Y100782D01*
X111217Y102229D01*
X112240Y104001D01*
X112770Y105977D01*
Y108023D01*
X112240Y109999D01*
X111217Y111771D01*
X109771Y113217D01*
X107999Y114241D01*
X106023Y114770D01*
X103977D01*
X102001Y114241D01*
X100229Y113217D01*
X99250Y112238D01*
X97308Y112880D01*
X97250Y112924D01*
X97250Y397961D01*
X487998D01*
X488000Y367970D01*
D02*
G37*
G36*
X73907Y334596D02*
Y300846D01*
X70407Y297346D01*
X53446D01*
X47762Y291874D01*
Y259596D01*
X52786Y253461D01*
X79319Y253379D01*
X90368Y242415D01*
X92457Y49965D01*
X88041Y45500D01*
X71750Y45500D01*
X67250Y50000D01*
Y185750D01*
X48750Y204250D01*
X35500D01*
X20407Y219343D01*
Y324096D01*
X39657Y343346D01*
X65157D01*
X73907Y334596D01*
D02*
G37*
G36*
X622625Y41504D02*
X622277Y41228D01*
X619595Y41642D01*
X618308Y43568D01*
X617636Y44240D01*
X602596Y29200D01*
X617636Y14160D01*
X618308Y14832D01*
X619595Y16758D01*
X622277Y17172D01*
X622625Y16896D01*
Y2039D01*
X422125D01*
Y46063D01*
X427310Y51399D01*
X459677Y52326D01*
X465664Y58574D01*
Y167750D01*
X622625D01*
Y41504D01*
D02*
G37*
%LPC*%
G36*
X406861Y371138D02*
X404638D01*
X402743Y370353D01*
X405750Y367346D01*
X408757Y370353D01*
X406861Y371138D01*
D02*
G37*
G36*
X473010Y377560D02*
X469949D01*
X466947Y376963D01*
X464119Y375791D01*
X461574Y374091D01*
X461390Y373906D01*
X471480Y363816D01*
X481570Y373906D01*
X481386Y374091D01*
X478841Y375791D01*
X476013Y376963D01*
X473010Y377560D01*
D02*
G37*
G36*
X410553Y368557D02*
X407546Y365550D01*
X410553Y362543D01*
X411338Y364439D01*
Y366661D01*
X410553Y368557D01*
D02*
G37*
G36*
X400947Y368557D02*
X400162Y366661D01*
Y364439D01*
X400947Y362543D01*
X403954Y365550D01*
X400947Y368557D01*
D02*
G37*
G36*
X405750Y363754D02*
X402743Y360747D01*
X404638Y359962D01*
X406861D01*
X408757Y360747D01*
X405750Y363754D01*
D02*
G37*
G36*
X459594Y372110D02*
X459409Y371926D01*
X457709Y369381D01*
X456537Y366553D01*
X455940Y363550D01*
Y360489D01*
X456537Y357487D01*
X457709Y354659D01*
X459409Y352114D01*
X459594Y351930D01*
X469684Y362020D01*
X459594Y372110D01*
D02*
G37*
G36*
X471480Y360224D02*
X461390Y350134D01*
X461574Y349949D01*
X464119Y348249D01*
X466947Y347077D01*
X469949Y346480D01*
X473010D01*
X476013Y347077D01*
X478841Y348249D01*
X481386Y349949D01*
X481570Y350134D01*
X471480Y360224D01*
D02*
G37*
G36*
X246717Y338667D02*
X246668Y338656D01*
X246619Y338663D01*
X245799Y338449D01*
X244976Y338253D01*
X244935Y338224D01*
X244930Y338223D01*
X244699Y338318D01*
X242981D01*
X241394Y337661D01*
X240180Y336446D01*
X239522Y334859D01*
Y333141D01*
X239723Y332656D01*
X239713Y332603D01*
X239683Y332553D01*
X239550Y331725D01*
X239396Y330900D01*
X239408Y330843D01*
X239399Y330785D01*
X239593Y329969D01*
X239766Y329148D01*
X239799Y329100D01*
X239813Y329044D01*
X240304Y328364D01*
X240779Y327672D01*
X240828Y327640D01*
X240862Y327593D01*
X241576Y327153D01*
X242279Y326696D01*
X242337Y326685D01*
X242386Y326654D01*
X243214Y326521D01*
X243815Y326409D01*
X244199Y326175D01*
X244965Y325705D01*
X244968Y325705D01*
X244970Y325703D01*
X245839Y325567D01*
X246734Y325425D01*
X246736Y325426D01*
X246739Y325425D01*
X247587Y325630D01*
X248475Y325843D01*
X248477Y325845D01*
X248479Y325845D01*
X248699Y326005D01*
X252102Y322602D01*
X252858Y322097D01*
X253750Y321919D01*
X349035D01*
X350452Y320502D01*
X350290Y320279D01*
X350269Y320189D01*
X350218Y320112D01*
X350060Y319322D01*
X349872Y318538D01*
X349886Y318447D01*
X349868Y318357D01*
X350025Y317566D01*
X350151Y316770D01*
X350200Y316691D01*
X350218Y316601D01*
X350666Y315930D01*
X350890Y315564D01*
X351049Y314851D01*
X351213Y314025D01*
X351243Y313980D01*
X351255Y313927D01*
X351740Y313237D01*
X352208Y312536D01*
X352253Y312506D01*
X352284Y312462D01*
X352995Y312010D01*
X353696Y311542D01*
X353750Y311531D01*
X353795Y311502D01*
X354625Y311357D01*
X355452Y311192D01*
X355505Y311203D01*
X355559Y311194D01*
X356381Y311377D01*
X357208Y311542D01*
X357253Y311572D01*
X357286Y311579D01*
X357641Y311432D01*
X359359D01*
X360946Y312089D01*
X362161Y313304D01*
X362818Y314891D01*
Y316609D01*
X362671Y316964D01*
X362678Y316997D01*
X362708Y317042D01*
X362873Y317869D01*
X363056Y318691D01*
X363047Y318745D01*
X363058Y318798D01*
X362893Y319625D01*
X362748Y320455D01*
X362719Y320500D01*
X362708Y320554D01*
X362240Y321255D01*
X361788Y321966D01*
X361744Y321997D01*
X361714Y322042D01*
X361013Y322511D01*
X360323Y322995D01*
X360270Y323007D01*
X360225Y323037D01*
X359398Y323201D01*
X358686Y323360D01*
X358320Y323585D01*
X357649Y324033D01*
X357559Y324050D01*
X357480Y324099D01*
X356684Y324224D01*
X355893Y324382D01*
X355803Y324364D01*
X355712Y324378D01*
X354928Y324190D01*
X354137Y324033D01*
X354061Y323981D01*
X353971Y323960D01*
X353748Y323798D01*
X351648Y325898D01*
X350892Y326403D01*
X350000Y326581D01*
X254715D01*
X251938Y329359D01*
X252102Y329585D01*
X252144Y329761D01*
X252238Y329915D01*
X252351Y330626D01*
X252519Y331326D01*
X252490Y331505D01*
X252518Y331683D01*
X252350Y332384D01*
X252237Y333094D01*
X252143Y333248D01*
X252100Y333424D01*
X251677Y334007D01*
X251468Y334348D01*
X251467Y334351D01*
X251254Y335170D01*
X251058Y335994D01*
X251029Y336035D01*
X251016Y336083D01*
X250505Y336759D01*
X250009Y337445D01*
X249966Y337471D01*
X249936Y337511D01*
X249206Y337939D01*
X248485Y338383D01*
X248435Y338391D01*
X248392Y338417D01*
X247554Y338533D01*
X246717Y338667D01*
D02*
G37*
G36*
X415611Y324588D02*
X413388D01*
X411493Y323803D01*
X414500Y320796D01*
X417507Y323803D01*
X415611Y324588D01*
D02*
G37*
G36*
X419303Y322007D02*
X416296Y319000D01*
X419303Y315993D01*
X420088Y317889D01*
Y320112D01*
X419303Y322007D01*
D02*
G37*
G36*
X409697Y322007D02*
X408912Y320112D01*
Y317889D01*
X409697Y315993D01*
X412704Y319000D01*
X409697Y322007D01*
D02*
G37*
G36*
X414500Y317204D02*
X411493Y314197D01*
X413388Y313412D01*
X415611D01*
X417507Y314197D01*
X414500Y317204D01*
D02*
G37*
G36*
X309805Y309414D02*
X295695D01*
X294218Y309120D01*
X294043Y309003D01*
X302750Y300296D01*
X311457Y309003D01*
X311282Y309120D01*
X309805Y309414D01*
D02*
G37*
G36*
X313253Y307207D02*
X304546Y298500D01*
X313253Y289793D01*
X313370Y289968D01*
X313664Y291445D01*
Y305555D01*
X313370Y307032D01*
X313253Y307207D01*
D02*
G37*
G36*
X292247D02*
X292130Y307032D01*
X291836Y305555D01*
Y291445D01*
X292130Y289968D01*
X292247Y289793D01*
X300954Y298500D01*
X292247Y307207D01*
D02*
G37*
G36*
X302750Y296704D02*
X294043Y287997D01*
X294218Y287880D01*
X295695Y287586D01*
X309805D01*
X311282Y287880D01*
X311457Y287997D01*
X302750Y296704D01*
D02*
G37*
G36*
X413100Y289933D02*
X405900D01*
X404441Y289643D01*
X404280Y289536D01*
X409500Y284316D01*
X414720Y289536D01*
X414559Y289643D01*
X413100Y289933D01*
D02*
G37*
G36*
X385859Y293068D02*
X384141D01*
X382554Y292411D01*
X381339Y291196D01*
X380831Y289969D01*
X380205Y289550D01*
X380222Y289533D01*
X380220Y289516D01*
X367285Y276581D01*
X358522D01*
X358167Y276930D01*
X358701Y279041D01*
X358782Y279130D01*
X359389Y279631D01*
X360088Y280208D01*
X360089Y280208D01*
X360089Y280208D01*
X360472Y280929D01*
X360928Y281789D01*
X360928Y281789D01*
X360928Y281790D01*
X361013Y282671D01*
X361090Y283484D01*
X361161Y283554D01*
X361818Y285141D01*
Y286859D01*
X361161Y288446D01*
X359946Y289661D01*
X358359Y290318D01*
X357475D01*
X357456Y290341D01*
X356721Y290731D01*
X355998Y291141D01*
X355933Y291150D01*
X355874Y291180D01*
X355047Y291260D01*
X354222Y291362D01*
X354158Y291345D01*
X354092Y291351D01*
X353298Y291107D01*
X352496Y290886D01*
X352444Y290846D01*
X352381Y290826D01*
X351740Y290297D01*
X351084Y289786D01*
X351068Y289760D01*
X350728Y289676D01*
X350483Y289498D01*
X350201Y289388D01*
X349767Y288974D01*
X349283Y288619D01*
X349125Y288361D01*
X348906Y288152D01*
X348664Y287603D01*
X348352Y287090D01*
X348312Y286831D01*
X326550D01*
X326507Y287103D01*
X326459Y287181D01*
X326441Y287272D01*
X325994Y287942D01*
X325572Y288630D01*
X325498Y288684D01*
X325447Y288760D01*
X324777Y289208D01*
X324124Y289682D01*
X324035Y289704D01*
X323958Y289755D01*
X323168Y289912D01*
X322750Y290012D01*
X322134Y290404D01*
X321432Y290872D01*
X321379Y290883D01*
X321334Y290912D01*
X320504Y291057D01*
X319677Y291222D01*
X319624Y291211D01*
X319570Y291220D01*
X318748Y291037D01*
X317921Y290872D01*
X317876Y290842D01*
X317823Y290830D01*
X317133Y290346D01*
X316432Y289878D01*
X316402Y289833D01*
X316358Y289802D01*
X315906Y289090D01*
X315438Y288389D01*
X315427Y288336D01*
X315409Y288308D01*
X315054Y288161D01*
X313839Y286946D01*
X313182Y285359D01*
Y283641D01*
X313839Y282054D01*
X315054Y280839D01*
X315409Y280692D01*
X315427Y280664D01*
X315438Y280611D01*
X315906Y279911D01*
X316358Y279198D01*
X316402Y279167D01*
X316432Y279122D01*
X317132Y278654D01*
X317237Y278581D01*
X316605Y276581D01*
X302300D01*
X302257Y276853D01*
X302209Y276932D01*
X302191Y277022D01*
X301744Y277692D01*
X301322Y278380D01*
X301248Y278434D01*
X301197Y278510D01*
X300527Y278958D01*
X299874Y279432D01*
X299785Y279454D01*
X299708Y279505D01*
X298918Y279662D01*
X298500Y279762D01*
X297884Y280154D01*
X297183Y280623D01*
X297129Y280633D01*
X297083Y280662D01*
X296254Y280807D01*
X295427Y280972D01*
X295373Y280961D01*
X295320Y280970D01*
X294498Y280787D01*
X293671Y280623D01*
X293626Y280592D01*
X293573Y280581D01*
X293376Y280442D01*
X293179Y280592D01*
X293131Y280605D01*
X293091Y280634D01*
X292267Y280834D01*
X291448Y281050D01*
X291399Y281044D01*
X291351Y281055D01*
X290513Y280924D01*
X289674Y280811D01*
X289631Y280786D01*
X289582Y280778D01*
X288859Y280337D01*
X288127Y279911D01*
X288118Y279904D01*
X287727Y279811D01*
X287025Y279702D01*
X286863Y279604D01*
X286678Y279559D01*
X286102Y279142D01*
X285495Y278773D01*
X284432Y279550D01*
X284425Y279551D01*
X284419Y279555D01*
X283558Y279763D01*
X283107Y279874D01*
X282618Y280212D01*
X281940Y280706D01*
X281884Y280720D01*
X281835Y280753D01*
X281015Y280930D01*
X280201Y281127D01*
X280142Y281118D01*
X280085Y281130D01*
X279260Y280980D01*
X278432Y280850D01*
X278382Y280819D01*
X278324Y280809D01*
X277619Y280354D01*
X276904Y279917D01*
X276869Y279870D01*
X276820Y279838D01*
X276343Y279148D01*
X275849Y278471D01*
X275835Y278414D01*
X275803Y278367D01*
X275304Y278161D01*
X274089Y276946D01*
X273432Y275359D01*
Y273641D01*
X274089Y272054D01*
X275304Y270839D01*
X275521Y270749D01*
X275522Y270748D01*
X275530Y270698D01*
X275972Y269975D01*
X276397Y269243D01*
X276437Y269213D01*
X276463Y269170D01*
X277147Y268671D01*
X277821Y268158D01*
X277869Y268145D01*
X277909Y268116D01*
X278733Y267916D01*
X279552Y267700D01*
X279601Y267706D01*
X279649Y267695D01*
X280486Y267826D01*
X281326Y267939D01*
X281369Y267964D01*
X281418Y267972D01*
X282141Y268413D01*
X282873Y268839D01*
X282881Y268846D01*
X283272Y268939D01*
X283975Y269048D01*
X284137Y269146D01*
X284322Y269191D01*
X284898Y269608D01*
X285505Y269977D01*
X285506Y269977D01*
X285851Y269726D01*
X286568Y269200D01*
X286575Y269199D01*
X286581Y269195D01*
X287444Y268986D01*
X287893Y268876D01*
X288382Y268538D01*
X289060Y268044D01*
X289116Y268030D01*
X289165Y267997D01*
X289985Y267820D01*
X290800Y267623D01*
X290857Y267632D01*
X290915Y267620D01*
X291740Y267770D01*
X292568Y267900D01*
X292618Y267931D01*
X292676Y267941D01*
X293127Y268232D01*
X293573Y267920D01*
X293626Y267908D01*
X293671Y267878D01*
X294497Y267713D01*
X295320Y267530D01*
X295374Y267539D01*
X295427Y267528D01*
X296253Y267693D01*
X297083Y267838D01*
X297129Y267867D01*
X297183Y267878D01*
X297883Y268346D01*
X298500Y268738D01*
X298918Y268838D01*
X299708Y268995D01*
X299785Y269046D01*
X299874Y269068D01*
X300527Y269542D01*
X301197Y269990D01*
X301248Y270066D01*
X301322Y270120D01*
X301744Y270808D01*
X302191Y271478D01*
X302209Y271569D01*
X302257Y271647D01*
X302300Y271919D01*
X347557D01*
X348893Y269919D01*
X348662Y269361D01*
Y267139D01*
X349447Y265243D01*
X353352Y269148D01*
X354250Y268250D01*
X355148Y269148D01*
X359053Y265243D01*
X359838Y267139D01*
Y269361D01*
X359607Y269919D01*
X360943Y271919D01*
X368250D01*
X369142Y272097D01*
X369898Y272602D01*
X382470Y285174D01*
X382554Y285089D01*
X384141Y284432D01*
X385859D01*
X387446Y285089D01*
X388661Y286304D01*
X389318Y287891D01*
Y289609D01*
X388661Y291196D01*
X387446Y292411D01*
X385859Y293068D01*
D02*
G37*
G36*
X473359Y300090D02*
X469601D01*
X465972Y299118D01*
X462718Y297239D01*
X460061Y294582D01*
X458182Y291328D01*
X457210Y287699D01*
Y283941D01*
X458182Y280312D01*
X460061Y277058D01*
X462718Y274401D01*
X465972Y272522D01*
X469601Y271550D01*
X473359D01*
X476988Y272522D01*
X480242Y274401D01*
X482899Y277058D01*
X484777Y280312D01*
X485750Y283941D01*
Y287699D01*
X484777Y291328D01*
X482899Y294582D01*
X480242Y297239D01*
X476988Y299118D01*
X473359Y300090D01*
D02*
G37*
G36*
X402484Y287740D02*
X402377Y287579D01*
X402087Y286120D01*
Y272520D01*
X402377Y271061D01*
X402484Y270900D01*
X408602Y277018D01*
X409500Y276120D01*
X410398Y277018D01*
X416516Y270900D01*
X416623Y271061D01*
X416913Y272520D01*
Y286120D01*
X416623Y287579D01*
X416516Y287740D01*
X410398Y281622D01*
X409500Y282520D01*
X408602Y281622D01*
X402484Y287740D01*
D02*
G37*
G36*
X409500Y274324D02*
X404280Y269104D01*
X404441Y268997D01*
X405900Y268707D01*
X413100D01*
X414559Y268997D01*
X414720Y269104D01*
X409500Y274324D01*
D02*
G37*
G36*
X457662Y269538D02*
X455438D01*
X453543Y268753D01*
X456550Y265746D01*
X459557Y268753D01*
X457662Y269538D01*
D02*
G37*
G36*
X203661D02*
X201439D01*
X199543Y268753D01*
X202550Y265746D01*
X205557Y268753D01*
X203661Y269538D01*
D02*
G37*
G36*
X354250Y266454D02*
X351243Y263447D01*
X353139Y262662D01*
X355362D01*
X357257Y263447D01*
X354250Y266454D01*
D02*
G37*
G36*
X461353Y266957D02*
X458346Y263950D01*
X461353Y260943D01*
X462138Y262838D01*
Y265061D01*
X461353Y266957D01*
D02*
G37*
G36*
X207353D02*
X204346Y263950D01*
X207353Y260943D01*
X208138Y262838D01*
Y265061D01*
X207353Y266957D01*
D02*
G37*
G36*
X451747Y266957D02*
X450962Y265061D01*
Y262838D01*
X451747Y260943D01*
X454754Y263950D01*
X451747Y266957D01*
D02*
G37*
G36*
X197747D02*
X196962Y265061D01*
Y262838D01*
X197747Y260943D01*
X200754Y263950D01*
X197747Y266957D01*
D02*
G37*
G36*
X456550Y262154D02*
X453543Y259147D01*
X455438Y258362D01*
X457662D01*
X459557Y259147D01*
X456550Y262154D01*
D02*
G37*
G36*
X202550D02*
X199543Y259147D01*
X201439Y258362D01*
X203661D01*
X205557Y259147D01*
X202550Y262154D01*
D02*
G37*
G36*
X298111Y254588D02*
X295889D01*
X293993Y253803D01*
X297000Y250796D01*
X300007Y253803D01*
X298111Y254588D01*
D02*
G37*
G36*
X301803Y252007D02*
X298796Y249000D01*
X301803Y245993D01*
X302588Y247889D01*
Y250112D01*
X301803Y252007D01*
D02*
G37*
G36*
X292197Y252007D02*
X291412Y250112D01*
Y247889D01*
X292197Y245993D01*
X295204Y249000D01*
X292197Y252007D01*
D02*
G37*
G36*
X297000Y247204D02*
X293993Y244197D01*
X295889Y243412D01*
X298111D01*
X300007Y244197D01*
X297000Y247204D01*
D02*
G37*
G36*
X140112Y239088D02*
X137888D01*
X135993Y238303D01*
X139000Y235296D01*
X142007Y238303D01*
X140112Y239088D01*
D02*
G37*
G36*
X143803Y236507D02*
X140796Y233500D01*
X143803Y230493D01*
X144588Y232388D01*
Y234611D01*
X143803Y236507D01*
D02*
G37*
G36*
X134197Y236507D02*
X133412Y234611D01*
Y232388D01*
X134197Y230493D01*
X137204Y233500D01*
X134197Y236507D01*
D02*
G37*
G36*
X139000Y231704D02*
X135993Y228697D01*
X137888Y227912D01*
X140112D01*
X142007Y228697D01*
X139000Y231704D01*
D02*
G37*
G36*
X428362Y231588D02*
X426138D01*
X424243Y230803D01*
X427250Y227796D01*
X430257Y230803D01*
X428362Y231588D01*
D02*
G37*
G36*
X286362Y228088D02*
X284139D01*
X282243Y227303D01*
X285250Y224296D01*
X288257Y227303D01*
X286362Y228088D01*
D02*
G37*
G36*
X432053Y229007D02*
X429046Y226000D01*
X432053Y222993D01*
X432838Y224888D01*
Y227111D01*
X432053Y229007D01*
D02*
G37*
G36*
X422447Y229007D02*
X421662Y227111D01*
Y224888D01*
X422447Y222993D01*
X425454Y226000D01*
X422447Y229007D01*
D02*
G37*
G36*
X427250Y224204D02*
X424243Y221197D01*
X426138Y220412D01*
X428362D01*
X430257Y221197D01*
X427250Y224204D01*
D02*
G37*
G36*
X290053Y225507D02*
X287046Y222500D01*
X290053Y219493D01*
X290838Y221388D01*
Y223612D01*
X290053Y225507D01*
D02*
G37*
G36*
X280447Y225507D02*
X279662Y223612D01*
Y221388D01*
X280447Y219493D01*
X283454Y222500D01*
X280447Y225507D01*
D02*
G37*
G36*
X285250Y220704D02*
X282243Y217697D01*
X284139Y216912D01*
X286362D01*
X288257Y217697D01*
X285250Y220704D01*
D02*
G37*
G36*
X229062Y218738D02*
X226838D01*
X224943Y217953D01*
X227950Y214946D01*
X230957Y217953D01*
X229062Y218738D01*
D02*
G37*
G36*
X178262D02*
X176038D01*
X174143Y217953D01*
X177150Y214946D01*
X180157Y217953D01*
X178262Y218738D01*
D02*
G37*
G36*
X127462D02*
X125239D01*
X123343Y217953D01*
X126350Y214946D01*
X129357Y217953D01*
X127462Y218738D01*
D02*
G37*
G36*
X304611Y215838D02*
X302388D01*
X300493Y215053D01*
X303500Y212046D01*
X306507Y215053D01*
X304611Y215838D01*
D02*
G37*
G36*
X232753Y216157D02*
X229746Y213150D01*
X232753Y210143D01*
X233538Y212038D01*
Y214261D01*
X232753Y216157D01*
D02*
G37*
G36*
X181953D02*
X178946Y213150D01*
X181953Y210143D01*
X182738Y212038D01*
Y214261D01*
X181953Y216157D01*
D02*
G37*
G36*
X131153D02*
X128146Y213150D01*
X131153Y210143D01*
X131938Y212038D01*
Y214261D01*
X131153Y216157D01*
D02*
G37*
G36*
X223147Y216157D02*
X222362Y214261D01*
Y212038D01*
X223147Y210143D01*
X226154Y213150D01*
X223147Y216157D01*
D02*
G37*
G36*
X172347D02*
X171562Y214261D01*
Y212038D01*
X172347Y210143D01*
X175354Y213150D01*
X172347Y216157D01*
D02*
G37*
G36*
X121547D02*
X120762Y214261D01*
Y212038D01*
X121547Y210143D01*
X124554Y213150D01*
X121547Y216157D01*
D02*
G37*
G36*
X227950Y211354D02*
X224943Y208347D01*
X226838Y207562D01*
X229062D01*
X230957Y208347D01*
X227950Y211354D01*
D02*
G37*
G36*
X177150D02*
X174143Y208347D01*
X176038Y207562D01*
X178262D01*
X180157Y208347D01*
X177150Y211354D01*
D02*
G37*
G36*
X126350D02*
X123343Y208347D01*
X125239Y207562D01*
X127462D01*
X129357Y208347D01*
X126350Y211354D01*
D02*
G37*
G36*
X308303Y213257D02*
X305296Y210250D01*
X308303Y207243D01*
X309088Y209139D01*
Y211362D01*
X308303Y213257D01*
D02*
G37*
G36*
X298697Y213257D02*
X297912Y211362D01*
Y209139D01*
X298697Y207243D01*
X301704Y210250D01*
X298697Y213257D01*
D02*
G37*
G36*
X426362Y210838D02*
X424138D01*
X422243Y210053D01*
X425250Y207046D01*
X428257Y210053D01*
X426362Y210838D01*
D02*
G37*
G36*
X356111Y210088D02*
X353889D01*
X351993Y209303D01*
X355000Y206296D01*
X358007Y209303D01*
X356111Y210088D01*
D02*
G37*
G36*
X303500Y208454D02*
X300493Y205447D01*
X302388Y204662D01*
X304611D01*
X306507Y205447D01*
X303500Y208454D01*
D02*
G37*
G36*
X430053Y208257D02*
X427046Y205250D01*
X430053Y202243D01*
X430838Y204139D01*
Y206362D01*
X430053Y208257D01*
D02*
G37*
G36*
X420447Y208257D02*
X419662Y206362D01*
Y204139D01*
X420447Y202243D01*
X423454Y205250D01*
X420447Y208257D01*
D02*
G37*
G36*
X359803Y207507D02*
X356796Y204500D01*
X359803Y201493D01*
X360588Y203389D01*
Y205611D01*
X359803Y207507D01*
D02*
G37*
G36*
X350197Y207507D02*
X349412Y205611D01*
Y203389D01*
X350197Y201493D01*
X353204Y204500D01*
X350197Y207507D01*
D02*
G37*
G36*
X425250Y203454D02*
X422243Y200447D01*
X424138Y199662D01*
X426362D01*
X428257Y200447D01*
X425250Y203454D01*
D02*
G37*
G36*
X355000Y202704D02*
X351993Y199697D01*
X353889Y198912D01*
X356111D01*
X358007Y199697D01*
X355000Y202704D01*
D02*
G37*
G36*
X238862Y198088D02*
X236639D01*
X234743Y197303D01*
X237750Y194296D01*
X240757Y197303D01*
X238862Y198088D01*
D02*
G37*
G36*
X242553Y195507D02*
X239546Y192500D01*
X242553Y189493D01*
X243338Y191388D01*
Y193612D01*
X242553Y195507D01*
D02*
G37*
G36*
X232947Y195507D02*
X232162Y193612D01*
Y191388D01*
X232947Y189493D01*
X235954Y192500D01*
X232947Y195507D01*
D02*
G37*
G36*
X237750Y190704D02*
X234743Y187697D01*
X236639Y186912D01*
X238862D01*
X240757Y187697D01*
X237750Y190704D01*
D02*
G37*
G36*
X345112Y180588D02*
X342888D01*
X340993Y179803D01*
X344000Y176796D01*
X347007Y179803D01*
X345112Y180588D01*
D02*
G37*
G36*
X348803Y178007D02*
X345796Y175000D01*
X348803Y171993D01*
X349588Y173888D01*
Y176112D01*
X348803Y178007D01*
D02*
G37*
G36*
X339197Y178007D02*
X338412Y176112D01*
Y173888D01*
X339197Y171993D01*
X342204Y175000D01*
X339197Y178007D01*
D02*
G37*
G36*
X395389Y175116D02*
X393166D01*
X391271Y174331D01*
X394278Y171324D01*
X397285Y174331D01*
X395389Y175116D01*
D02*
G37*
G36*
X344000Y173204D02*
X340993Y170197D01*
X342888Y169412D01*
X345112D01*
X347007Y170197D01*
X344000Y173204D01*
D02*
G37*
G36*
X399081Y172535D02*
X396074Y169528D01*
X399081Y166521D01*
X399866Y168416D01*
Y170639D01*
X399081Y172535D01*
D02*
G37*
G36*
X389475Y172535D02*
X388690Y170639D01*
Y168416D01*
X389475Y166521D01*
X392482Y169528D01*
X389475Y172535D01*
D02*
G37*
G36*
X203661Y167938D02*
X201439D01*
X199543Y167153D01*
X202550Y164146D01*
X205557Y167153D01*
X203661Y167938D01*
D02*
G37*
G36*
X394278Y167732D02*
X391271Y164725D01*
X393166Y163940D01*
X395389D01*
X397285Y164725D01*
X394278Y167732D01*
D02*
G37*
G36*
X134609Y182318D02*
X132891D01*
X131304Y181661D01*
X130089Y180446D01*
X129942Y180091D01*
X129914Y180073D01*
X129861Y180062D01*
X129160Y179594D01*
X128448Y179142D01*
X128417Y179098D01*
X128372Y179068D01*
X127904Y178368D01*
X127420Y177677D01*
X127408Y177624D01*
X127378Y177579D01*
X127213Y176753D01*
X127029Y175930D01*
X127039Y175877D01*
X127028Y175823D01*
X127192Y174997D01*
X127338Y174167D01*
X127367Y174121D01*
X127378Y174067D01*
X127845Y173367D01*
X128237Y172750D01*
X128338Y172332D01*
X128495Y171542D01*
X128546Y171465D01*
X128568Y171376D01*
X129042Y170724D01*
X129490Y170053D01*
X129566Y170002D01*
X129620Y169928D01*
X130308Y169506D01*
X130978Y169059D01*
X131068Y169041D01*
X131147Y168993D01*
X131419Y168950D01*
Y164340D01*
X129419Y163004D01*
X128611Y163338D01*
X126389D01*
X124493Y162553D01*
X128398Y158648D01*
X127500Y157750D01*
X128398Y156852D01*
X124493Y152947D01*
X126389Y152162D01*
X128611D01*
X129419Y152497D01*
X131419Y151160D01*
Y136000D01*
X131597Y135108D01*
X132102Y134352D01*
X149602Y116852D01*
X150358Y116347D01*
X151250Y116169D01*
X171254D01*
X172187Y114169D01*
X171562Y112662D01*
Y110438D01*
X172347Y108543D01*
X176252Y112448D01*
X177150Y111550D01*
X178048Y112448D01*
X181953Y108543D01*
X182738Y110438D01*
Y112662D01*
X182113Y114169D01*
X183046Y116169D01*
X220285D01*
X225795Y110659D01*
Y91875D01*
X225972Y90983D01*
X226477Y90227D01*
X227685Y89019D01*
X227669Y88975D01*
X227504Y88742D01*
X227367Y88140D01*
X227157Y87559D01*
X227170Y87275D01*
X227107Y86997D01*
X227211Y86388D01*
X227239Y85771D01*
X227360Y85513D01*
X227407Y85232D01*
X227736Y84709D01*
X227999Y84150D01*
X228209Y83958D01*
X228278Y83848D01*
X228293Y83334D01*
X228317Y83282D01*
X228320Y83224D01*
X228683Y82467D01*
X229027Y81701D01*
X229069Y81662D01*
X229094Y81610D01*
X229719Y81049D01*
X230330Y80473D01*
X230383Y80453D01*
X230426Y80414D01*
X231154Y80158D01*
Y77501D01*
X231456Y75211D01*
X232339Y73078D01*
X233745Y71246D01*
X235577Y69840D01*
X237711Y68956D01*
X240000Y68655D01*
X242289Y68956D01*
X244423Y69840D01*
X246255Y71246D01*
X247661Y73078D01*
X248544Y75211D01*
X248846Y77501D01*
Y82500D01*
X248544Y84790D01*
X247661Y86923D01*
X246255Y88755D01*
X244423Y90161D01*
X242946Y90773D01*
X242818Y91538D01*
X243040Y92893D01*
X245063Y93730D01*
X246144Y94560D01*
X239102Y101602D01*
X240898Y103399D01*
X247940Y96356D01*
X248770Y97437D01*
X249782Y99880D01*
X250127Y102500D01*
Y107500D01*
X249782Y110121D01*
X248770Y112564D01*
X247940Y113645D01*
X240898Y106602D01*
X240000Y107500D01*
X239102Y106602D01*
X232060Y113645D01*
X231963Y113519D01*
X230683Y113375D01*
X229577Y113482D01*
X229550Y113497D01*
X222898Y120148D01*
X222142Y120653D01*
X221250Y120831D01*
X152215D01*
X136081Y136966D01*
Y168950D01*
X136353Y168993D01*
X136432Y169041D01*
X136522Y169059D01*
X137192Y169506D01*
X137880Y169928D01*
X137934Y170002D01*
X138010Y170053D01*
X138458Y170723D01*
X138932Y171376D01*
X138954Y171465D01*
X139005Y171542D01*
X139162Y172332D01*
X139263Y172750D01*
X139654Y173366D01*
X140122Y174067D01*
X140133Y174121D01*
X140162Y174167D01*
X140307Y174996D01*
X140472Y175823D01*
X140461Y175877D01*
X140471Y175930D01*
X140287Y176752D01*
X140122Y177579D01*
X140092Y177624D01*
X140080Y177677D01*
X139596Y178367D01*
X139128Y179068D01*
X139083Y179098D01*
X139052Y179142D01*
X138341Y179594D01*
X137639Y180062D01*
X137586Y180073D01*
X137558Y180091D01*
X137411Y180446D01*
X136196Y181661D01*
X134609Y182318D01*
D02*
G37*
G36*
X207353Y165357D02*
X204346Y162350D01*
X207353Y159343D01*
X208138Y161238D01*
Y163461D01*
X207353Y165357D01*
D02*
G37*
G36*
X197747Y165357D02*
X196962Y163461D01*
Y161238D01*
X197747Y159343D01*
X200754Y162350D01*
X197747Y165357D01*
D02*
G37*
G36*
X202550Y160554D02*
X199543Y157547D01*
X201439Y156762D01*
X203661D01*
X205557Y157547D01*
X202550Y160554D01*
D02*
G37*
G36*
X122697Y160757D02*
X121912Y158862D01*
Y156638D01*
X122697Y154743D01*
X125704Y157750D01*
X122697Y160757D01*
D02*
G37*
G36*
X362166Y163665D02*
X256584D01*
X255692Y163487D01*
X254936Y162982D01*
X244752Y152798D01*
X244529Y152960D01*
X244439Y152981D01*
X244363Y153033D01*
X243572Y153190D01*
X242788Y153378D01*
X242697Y153364D01*
X242607Y153382D01*
X241816Y153224D01*
X241020Y153099D01*
X240941Y153050D01*
X240851Y153033D01*
X240181Y152585D01*
X239814Y152360D01*
X239101Y152201D01*
X238275Y152037D01*
X238230Y152007D01*
X238177Y151995D01*
X237487Y151510D01*
X236786Y151042D01*
X236756Y150997D01*
X236712Y150966D01*
X236260Y150254D01*
X235792Y149554D01*
X235781Y149501D01*
X235752Y149455D01*
X235607Y148625D01*
X235442Y147798D01*
X235453Y147745D01*
X235443Y147691D01*
X235627Y146869D01*
X235792Y146042D01*
X235822Y145997D01*
X235829Y145964D01*
X235682Y145609D01*
Y143891D01*
X236225Y142581D01*
X235779Y141430D01*
X235234Y140581D01*
X194466D01*
X184648Y150398D01*
X183892Y150903D01*
X183000Y151081D01*
X160750D01*
X159858Y150903D01*
X159102Y150398D01*
X156751Y148048D01*
X156529Y148210D01*
X156439Y148231D01*
X156363Y148282D01*
X155572Y148440D01*
X154788Y148628D01*
X154697Y148614D01*
X154607Y148632D01*
X153816Y148475D01*
X153020Y148349D01*
X152941Y148300D01*
X152851Y148282D01*
X152180Y147834D01*
X151814Y147610D01*
X151102Y147451D01*
X150275Y147287D01*
X150230Y147257D01*
X150177Y147245D01*
X149487Y146761D01*
X148786Y146292D01*
X148756Y146247D01*
X148712Y146216D01*
X148260Y145505D01*
X147792Y144804D01*
X147781Y144750D01*
X147752Y144705D01*
X147607Y143875D01*
X147442Y143048D01*
X147453Y142995D01*
X147444Y142941D01*
X147627Y142119D01*
X147792Y141292D01*
X147822Y141247D01*
X147829Y141214D01*
X147682Y140859D01*
Y139141D01*
X148339Y137554D01*
X149554Y136339D01*
X151141Y135682D01*
X152859D01*
X153214Y135829D01*
X153247Y135822D01*
X153292Y135792D01*
X154119Y135627D01*
X154941Y135444D01*
X154995Y135453D01*
X155048Y135442D01*
X155875Y135607D01*
X156705Y135752D01*
X156750Y135781D01*
X156804Y135792D01*
X157505Y136260D01*
X158216Y136712D01*
X158247Y136756D01*
X158292Y136786D01*
X158761Y137487D01*
X159245Y138177D01*
X159257Y138230D01*
X159287Y138275D01*
X159451Y139102D01*
X159610Y139814D01*
X159834Y140180D01*
X160282Y140851D01*
X160300Y140941D01*
X160348Y141020D01*
X160474Y141816D01*
X160632Y142607D01*
X160614Y142697D01*
X160628Y142788D01*
X160440Y143572D01*
X160282Y144363D01*
X160231Y144439D01*
X160210Y144529D01*
X160048Y144752D01*
X161715Y146419D01*
X179101D01*
X179728Y144715D01*
X179396Y144318D01*
X178391D01*
X176804Y143661D01*
X175589Y142446D01*
X174932Y140859D01*
Y139141D01*
X175079Y138786D01*
X175072Y138753D01*
X175042Y138708D01*
X174877Y137881D01*
X174694Y137059D01*
X174703Y137005D01*
X174692Y136952D01*
X174857Y136125D01*
X175002Y135295D01*
X175031Y135250D01*
X175042Y135196D01*
X175510Y134495D01*
X175962Y133784D01*
X176006Y133753D01*
X176036Y133708D01*
X176737Y133239D01*
X177427Y132755D01*
X177480Y132743D01*
X177525Y132713D01*
X178352Y132549D01*
X179064Y132390D01*
X179431Y132165D01*
X180101Y131718D01*
X180191Y131700D01*
X180270Y131651D01*
X181066Y131526D01*
X181857Y131368D01*
X181947Y131386D01*
X182038Y131372D01*
X182822Y131560D01*
X183613Y131718D01*
X183689Y131769D01*
X183779Y131790D01*
X184002Y131952D01*
X186852Y129102D01*
X187608Y128597D01*
X188500Y128419D01*
X251110D01*
X272177Y107352D01*
X272933Y106847D01*
X273825Y106669D01*
X329450D01*
X329493Y106397D01*
X329541Y106319D01*
X329559Y106228D01*
X330006Y105558D01*
X330428Y104870D01*
X330502Y104816D01*
X330553Y104740D01*
X331223Y104292D01*
X331876Y103818D01*
X331965Y103796D01*
X332042Y103745D01*
X332832Y103588D01*
X333250Y103488D01*
X333866Y103096D01*
X334567Y102627D01*
X334621Y102617D01*
X334666Y102588D01*
X335496Y102443D01*
X336323Y102278D01*
X336376Y102289D01*
X336430Y102280D01*
X337252Y102463D01*
X338079Y102627D01*
X338124Y102658D01*
X338177Y102669D01*
X338867Y103154D01*
X339568Y103622D01*
X339598Y103667D01*
X339642Y103698D01*
X340094Y104410D01*
X340562Y105111D01*
X340573Y105164D01*
X340591Y105192D01*
X340946Y105339D01*
X342161Y106554D01*
X342818Y108141D01*
Y109859D01*
X342161Y111446D01*
X340946Y112661D01*
X340591Y112808D01*
X340573Y112836D01*
X340562Y112889D01*
X340094Y113589D01*
X339642Y114302D01*
X339598Y114333D01*
X339568Y114378D01*
X338867Y114846D01*
X338177Y115331D01*
X338124Y115342D01*
X338079Y115372D01*
X337253Y115537D01*
X336430Y115721D01*
X336376Y115711D01*
X336323Y115722D01*
X335497Y115557D01*
X334666Y115412D01*
X334621Y115383D01*
X334567Y115372D01*
X333867Y114904D01*
X333250Y114513D01*
X332832Y114412D01*
X332042Y114255D01*
X331965Y114204D01*
X331876Y114182D01*
X331224Y113708D01*
X330553Y113260D01*
X330502Y113184D01*
X330428Y113130D01*
X330006Y112442D01*
X329559Y111772D01*
X329541Y111681D01*
X329493Y111603D01*
X329450Y111331D01*
X274791D01*
X253723Y132398D01*
X252967Y132903D01*
X252075Y133081D01*
X189466D01*
X187298Y135248D01*
X187460Y135471D01*
X187481Y135561D01*
X187533Y135637D01*
X187690Y136428D01*
X187878Y137212D01*
X187864Y137303D01*
X187882Y137393D01*
X187795Y137831D01*
X188462Y138421D01*
X189652Y138802D01*
X191852Y136602D01*
X192608Y136097D01*
X193500Y135919D01*
X247750D01*
X248642Y136097D01*
X249398Y136602D01*
X256965Y144169D01*
X297950D01*
X297992Y143897D01*
X298041Y143819D01*
X298059Y143728D01*
X298506Y143058D01*
X298928Y142370D01*
X299002Y142316D01*
X299053Y142240D01*
X299723Y141792D01*
X300376Y141318D01*
X300465Y141296D01*
X300542Y141245D01*
X301332Y141088D01*
X301750Y140988D01*
X302366Y140596D01*
X303067Y140127D01*
X303121Y140117D01*
X303167Y140088D01*
X303996Y139943D01*
X304689Y139805D01*
X305291Y138970D01*
X305760Y137916D01*
X304920Y136820D01*
X303757Y134013D01*
X303361Y131000D01*
Y125000D01*
X303757Y121988D01*
X304920Y119181D01*
X305990Y117786D01*
X314102Y125898D01*
X315000Y125000D01*
X315898Y125898D01*
X324010Y117786D01*
X325080Y119181D01*
X326243Y121988D01*
X326640Y125000D01*
Y131000D01*
X326243Y134013D01*
X325080Y136820D01*
X324010Y138215D01*
X315898Y130102D01*
X314102Y131898D01*
X322214Y140011D01*
X320820Y141081D01*
X318013Y142243D01*
X315000Y142640D01*
X311987Y142243D01*
X311460Y142025D01*
X310327Y143721D01*
X310661Y144054D01*
X311318Y145641D01*
Y147359D01*
X310661Y148946D01*
X309446Y150161D01*
X309091Y150308D01*
X309073Y150336D01*
X309062Y150389D01*
X308594Y151089D01*
X308142Y151802D01*
X308098Y151833D01*
X308068Y151878D01*
X307367Y152346D01*
X306677Y152831D01*
X306624Y152842D01*
X306579Y152872D01*
X305753Y153037D01*
X304930Y153221D01*
X304876Y153211D01*
X304823Y153222D01*
X303997Y153057D01*
X303167Y152912D01*
X303121Y152883D01*
X303067Y152872D01*
X302367Y152404D01*
X301750Y152013D01*
X301332Y151912D01*
X300542Y151755D01*
X300465Y151704D01*
X300376Y151682D01*
X299724Y151208D01*
X299053Y150760D01*
X299002Y150684D01*
X298928Y150630D01*
X298507Y149942D01*
X298059Y149272D01*
X298041Y149181D01*
X297993Y149103D01*
X297950Y148831D01*
X278770D01*
X278373Y150831D01*
X279257Y151197D01*
X275352Y155102D01*
X277148Y156898D01*
X281053Y152993D01*
X281838Y154888D01*
Y157112D01*
X281743Y157340D01*
X282854Y159003D01*
X361201D01*
X375702Y144502D01*
X375540Y144279D01*
X375519Y144189D01*
X375467Y144113D01*
X375310Y143322D01*
X375122Y142538D01*
X375136Y142447D01*
X375118Y142357D01*
X375276Y141566D01*
X375401Y140770D01*
X375450Y140691D01*
X375467Y140601D01*
X375916Y139930D01*
X376140Y139564D01*
X376299Y138851D01*
X376463Y138025D01*
X376493Y137980D01*
X376505Y137927D01*
X376990Y137237D01*
X377458Y136536D01*
X377503Y136506D01*
X377534Y136462D01*
X378245Y136010D01*
X378946Y135542D01*
X378999Y135531D01*
X379045Y135502D01*
X379875Y135357D01*
X380702Y135192D01*
X380755Y135203D01*
X380809Y135194D01*
X381631Y135377D01*
X382458Y135542D01*
X382503Y135572D01*
X382536Y135579D01*
X382891Y135432D01*
X384609D01*
X386196Y136089D01*
X387411Y137304D01*
X388068Y138891D01*
Y140609D01*
X387921Y140964D01*
X387928Y140997D01*
X387958Y141042D01*
X388123Y141869D01*
X388306Y142691D01*
X388297Y142745D01*
X388308Y142798D01*
X388143Y143625D01*
X387998Y144455D01*
X387969Y144501D01*
X387958Y144554D01*
X387490Y145255D01*
X387038Y145966D01*
X386994Y145997D01*
X386964Y146042D01*
X386263Y146511D01*
X385573Y146995D01*
X385520Y147007D01*
X385475Y147037D01*
X384648Y147201D01*
X383936Y147360D01*
X383570Y147584D01*
X382899Y148033D01*
X382809Y148050D01*
X382730Y148098D01*
X381934Y148224D01*
X381143Y148382D01*
X381053Y148364D01*
X380962Y148378D01*
X380178Y148190D01*
X379388Y148033D01*
X379311Y147981D01*
X379221Y147960D01*
X378998Y147798D01*
X363814Y162982D01*
X363058Y163487D01*
X362166Y163665D01*
D02*
G37*
G36*
X384861Y130338D02*
X382639D01*
X380743Y129553D01*
X383750Y126546D01*
X386757Y129553D01*
X384861Y130338D01*
D02*
G37*
G36*
X388553Y127757D02*
X385546Y124750D01*
X388553Y121743D01*
X389338Y123638D01*
Y125862D01*
X388553Y127757D01*
D02*
G37*
G36*
X378947Y127757D02*
X378162Y125862D01*
Y123638D01*
X378947Y121743D01*
X381954Y124750D01*
X378947Y127757D01*
D02*
G37*
G36*
X383750Y122954D02*
X380743Y119947D01*
X382639Y119162D01*
X384861D01*
X386757Y119947D01*
X383750Y122954D01*
D02*
G37*
G36*
X315000Y123204D02*
X307786Y115990D01*
X309180Y114920D01*
X311987Y113757D01*
X315000Y113361D01*
X318013Y113757D01*
X320820Y114920D01*
X322214Y115990D01*
X315000Y123204D01*
D02*
G37*
G36*
X432262Y117138D02*
X430038D01*
X428143Y116353D01*
X431150Y113346D01*
X434157Y116353D01*
X432262Y117138D01*
D02*
G37*
G36*
X240000Y117627D02*
X237379Y117282D01*
X234937Y116270D01*
X233856Y115441D01*
X240000Y109297D01*
X246144Y115441D01*
X245063Y116270D01*
X242621Y117282D01*
X240000Y117627D01*
D02*
G37*
G36*
X435953Y114557D02*
X432946Y111550D01*
X435953Y108543D01*
X436738Y110438D01*
Y112662D01*
X435953Y114557D01*
D02*
G37*
G36*
X426347Y114557D02*
X425562Y112662D01*
Y110438D01*
X426347Y108543D01*
X429354Y111550D01*
X426347Y114557D01*
D02*
G37*
G36*
X452312Y112088D02*
X450089D01*
X448193Y111303D01*
X451200Y108296D01*
X454207Y111303D01*
X452312Y112088D01*
D02*
G37*
G36*
X431150Y109754D02*
X428143Y106747D01*
X430038Y105962D01*
X432262D01*
X434157Y106747D01*
X431150Y109754D01*
D02*
G37*
G36*
X177150D02*
X174143Y106747D01*
X176038Y105962D01*
X178262D01*
X180157Y106747D01*
X177150Y109754D01*
D02*
G37*
G36*
X446397Y109507D02*
X445612Y107612D01*
Y105388D01*
X446397Y103493D01*
X449404Y106500D01*
X446397Y109507D01*
D02*
G37*
G36*
X451200Y104704D02*
X448193Y101697D01*
X450089Y100912D01*
X452312D01*
X454207Y101697D01*
X451200Y104704D01*
D02*
G37*
G36*
X406612Y102838D02*
X404389D01*
X402493Y102053D01*
X405500Y99046D01*
X408507Y102053D01*
X406612Y102838D01*
D02*
G37*
G36*
X217111Y100588D02*
X214888D01*
X212993Y99803D01*
X216000Y96796D01*
X219007Y99803D01*
X217111Y100588D01*
D02*
G37*
G36*
X410303Y100257D02*
X407296Y97250D01*
X410303Y94243D01*
X411088Y96138D01*
Y98362D01*
X410303Y100257D01*
D02*
G37*
G36*
X400697Y100257D02*
X399912Y98362D01*
Y96138D01*
X400697Y94243D01*
X403704Y97250D01*
X400697Y100257D01*
D02*
G37*
G36*
X220803Y98007D02*
X217796Y95000D01*
X220803Y91993D01*
X221588Y93889D01*
Y96111D01*
X220803Y98007D01*
D02*
G37*
G36*
X211197Y98007D02*
X210412Y96111D01*
Y93889D01*
X211197Y91993D01*
X214204Y95000D01*
X211197Y98007D01*
D02*
G37*
G36*
X405500Y95454D02*
X402493Y92447D01*
X404389Y91662D01*
X406612D01*
X408507Y92447D01*
X405500Y95454D01*
D02*
G37*
G36*
X216000Y93204D02*
X212993Y90197D01*
X214888Y89412D01*
X217111D01*
X219007Y90197D01*
X216000Y93204D01*
D02*
G37*
G36*
X217111Y82005D02*
X214888D01*
X212993Y81220D01*
X216000Y78213D01*
X219007Y81220D01*
X217111Y82005D01*
D02*
G37*
G36*
X220803Y79423D02*
X217796Y76417D01*
X220803Y73410D01*
X221588Y75305D01*
Y77528D01*
X220803Y79423D01*
D02*
G37*
G36*
X211197Y79424D02*
X210412Y77528D01*
Y75305D01*
X211197Y73410D01*
X214204Y76417D01*
X211197Y79424D01*
D02*
G37*
G36*
X111057Y88032D02*
X108943D01*
X106900Y87485D01*
X105068Y86427D01*
X103573Y84932D01*
X102515Y83100D01*
X101968Y81057D01*
Y78943D01*
X102515Y76900D01*
X103573Y75068D01*
X105068Y73573D01*
X106900Y72515D01*
X108943Y71968D01*
X111057D01*
X113100Y72515D01*
X114932Y73573D01*
X116427Y75068D01*
X117485Y76900D01*
X118032Y78943D01*
Y81057D01*
X117485Y83100D01*
X116427Y84932D01*
X114932Y86427D01*
X113100Y87485D01*
X111057Y88032D01*
D02*
G37*
G36*
X197111Y74838D02*
X194888D01*
X192993Y74053D01*
X196000Y71046D01*
X199007Y74053D01*
X197111Y74838D01*
D02*
G37*
G36*
X216000Y74621D02*
X212993Y71614D01*
X214888Y70829D01*
X217111D01*
X219007Y71614D01*
X216000Y74621D01*
D02*
G37*
G36*
X200803Y72257D02*
X197796Y69250D01*
X200803Y66243D01*
X201588Y68138D01*
Y70361D01*
X200803Y72257D01*
D02*
G37*
G36*
X191197Y72257D02*
X190412Y70361D01*
Y68138D01*
X191197Y66243D01*
X194204Y69250D01*
X191197Y72257D01*
D02*
G37*
G36*
X196000Y67454D02*
X192993Y64447D01*
X194888Y63662D01*
X197111D01*
X199007Y64447D01*
X196000Y67454D01*
D02*
G37*
G36*
X406861Y66338D02*
X404638D01*
X402743Y65553D01*
X405750Y62546D01*
X408757Y65553D01*
X406861Y66338D01*
D02*
G37*
G36*
X356062D02*
X353839D01*
X351943Y65553D01*
X354950Y62546D01*
X357957Y65553D01*
X356062Y66338D01*
D02*
G37*
G36*
X305261D02*
X303039D01*
X301143Y65553D01*
X304150Y62546D01*
X307157Y65553D01*
X305261Y66338D01*
D02*
G37*
G36*
X217111Y63421D02*
X214888D01*
X212993Y62636D01*
X216000Y59629D01*
X219007Y62636D01*
X217111Y63421D01*
D02*
G37*
G36*
X410553Y63757D02*
X407546Y60750D01*
X410553Y57743D01*
X411338Y59639D01*
Y61862D01*
X410553Y63757D01*
D02*
G37*
G36*
X359753D02*
X356746Y60750D01*
X359753Y57743D01*
X360538Y59639D01*
Y61862D01*
X359753Y63757D01*
D02*
G37*
G36*
X308953D02*
X305946Y60750D01*
X308953Y57743D01*
X309738Y59639D01*
Y61862D01*
X308953Y63757D01*
D02*
G37*
G36*
X400947Y63757D02*
X400162Y61862D01*
Y59639D01*
X400947Y57743D01*
X403954Y60750D01*
X400947Y63757D01*
D02*
G37*
G36*
X350147D02*
X349362Y61862D01*
Y59639D01*
X350147Y57743D01*
X353154Y60750D01*
X350147Y63757D01*
D02*
G37*
G36*
X299347D02*
X298562Y61862D01*
Y59639D01*
X299347Y57743D01*
X302354Y60750D01*
X299347Y63757D01*
D02*
G37*
G36*
X405750Y58954D02*
X402743Y55947D01*
X404638Y55162D01*
X406861D01*
X408757Y55947D01*
X405750Y58954D01*
D02*
G37*
G36*
X354950D02*
X351943Y55947D01*
X353839Y55162D01*
X356062D01*
X357957Y55947D01*
X354950Y58954D01*
D02*
G37*
G36*
X304150D02*
X301143Y55947D01*
X303039Y55162D01*
X305261D01*
X307157Y55947D01*
X304150Y58954D01*
D02*
G37*
G36*
X220803Y60840D02*
X217796Y57833D01*
X220803Y54826D01*
X221588Y56722D01*
Y58945D01*
X220803Y60840D01*
D02*
G37*
G36*
X211197Y60840D02*
X210412Y58945D01*
Y56722D01*
X211197Y54826D01*
X214204Y57833D01*
X211197Y60840D01*
D02*
G37*
G36*
X216000Y56037D02*
X212993Y53030D01*
X214888Y52245D01*
X217111D01*
X219007Y53030D01*
X216000Y56037D01*
D02*
G37*
G36*
X240000Y66346D02*
X237711Y66045D01*
X235577Y65161D01*
X233745Y63755D01*
X232339Y61923D01*
X231456Y59790D01*
X231154Y57501D01*
Y52501D01*
X231456Y50211D01*
X232339Y48078D01*
X233745Y46246D01*
X235577Y44840D01*
X237711Y43956D01*
X240000Y43655D01*
X242289Y43956D01*
X244423Y44840D01*
X246255Y46246D01*
X247661Y48078D01*
X248544Y50211D01*
X248846Y52501D01*
Y57501D01*
X248544Y59790D01*
X247661Y61923D01*
X246255Y63755D01*
X244423Y65161D01*
X242289Y66045D01*
X240000Y66346D01*
D02*
G37*
G36*
X217111Y44838D02*
X214888D01*
X212993Y44053D01*
X216000Y41046D01*
X219007Y44053D01*
X217111Y44838D01*
D02*
G37*
G36*
X315000Y46640D02*
X311987Y46244D01*
X309180Y45081D01*
X307786Y44011D01*
X315000Y36796D01*
X322214Y44011D01*
X320820Y45081D01*
X318013Y46244D01*
X315000Y46640D01*
D02*
G37*
G36*
X220803Y42257D02*
X217796Y39250D01*
X220803Y36243D01*
X221588Y38138D01*
Y40361D01*
X220803Y42257D01*
D02*
G37*
G36*
X211197Y42257D02*
X210412Y40361D01*
Y38138D01*
X211197Y36243D01*
X214204Y39250D01*
X211197Y42257D01*
D02*
G37*
G36*
X324010Y42215D02*
X315898Y34102D01*
X315000Y35000D01*
X314102Y34102D01*
X305990Y42215D01*
X304920Y40820D01*
X303757Y38013D01*
X303361Y35001D01*
Y29000D01*
X303757Y25988D01*
X304920Y23181D01*
X305990Y21786D01*
X314102Y29898D01*
X315000Y29000D01*
X315898Y29898D01*
X324010Y21786D01*
X325080Y23181D01*
X326243Y25988D01*
X326640Y29000D01*
Y35001D01*
X326243Y38013D01*
X325080Y40820D01*
X324010Y42215D01*
D02*
G37*
G36*
X216000Y37454D02*
X212993Y34447D01*
X214888Y33662D01*
X217111D01*
X219007Y34447D01*
X216000Y37454D01*
D02*
G37*
G36*
X315000Y27204D02*
X307786Y19990D01*
X309180Y18920D01*
X311987Y17758D01*
X315000Y17361D01*
X318013Y17758D01*
X320820Y18920D01*
X322214Y19990D01*
X315000Y27204D01*
D02*
G37*
G36*
X381461Y15538D02*
X379239D01*
X377343Y14753D01*
X380350Y11746D01*
X383357Y14753D01*
X381461Y15538D01*
D02*
G37*
G36*
X330662D02*
X328438D01*
X326543Y14753D01*
X329550Y11746D01*
X332557Y14753D01*
X330662Y15538D01*
D02*
G37*
G36*
X279862D02*
X277638D01*
X275743Y14753D01*
X278750Y11746D01*
X281757Y14753D01*
X279862Y15538D01*
D02*
G37*
G36*
X229062D02*
X226838D01*
X224943Y14753D01*
X227950Y11746D01*
X230957Y14753D01*
X229062Y15538D01*
D02*
G37*
G36*
X127462D02*
X125239D01*
X123343Y14753D01*
X126350Y11746D01*
X129357Y14753D01*
X127462Y15538D01*
D02*
G37*
G36*
X178262D02*
X176038D01*
X174143Y14753D01*
X177150Y11746D01*
X180157Y14753D01*
X178262Y15538D01*
D02*
G37*
G36*
X232753Y12957D02*
X229746Y9950D01*
X232753Y6943D01*
X233538Y8838D01*
Y11062D01*
X232753Y12957D01*
D02*
G37*
G36*
X181953D02*
X178946Y9950D01*
X181953Y6943D01*
X182738Y8838D01*
Y11062D01*
X181953Y12957D01*
D02*
G37*
G36*
X131153D02*
X128146Y9950D01*
X131153Y6943D01*
X131938Y8838D01*
Y11062D01*
X131153Y12957D01*
D02*
G37*
G36*
X385153D02*
X382146Y9950D01*
X385153Y6943D01*
X385938Y8838D01*
Y11062D01*
X385153Y12957D01*
D02*
G37*
G36*
X334353D02*
X331346Y9950D01*
X334353Y6943D01*
X335138Y8838D01*
Y11062D01*
X334353Y12957D01*
D02*
G37*
G36*
X283553D02*
X280546Y9950D01*
X283553Y6943D01*
X284338Y8838D01*
Y11062D01*
X283553Y12957D01*
D02*
G37*
G36*
X375547Y12957D02*
X374762Y11062D01*
Y8838D01*
X375547Y6943D01*
X378554Y9950D01*
X375547Y12957D01*
D02*
G37*
G36*
X324747D02*
X323962Y11062D01*
Y8838D01*
X324747Y6943D01*
X327754Y9950D01*
X324747Y12957D01*
D02*
G37*
G36*
X273947D02*
X273162Y11062D01*
Y8838D01*
X273947Y6943D01*
X276954Y9950D01*
X273947Y12957D01*
D02*
G37*
G36*
X223147D02*
X222362Y11062D01*
Y8838D01*
X223147Y6943D01*
X226154Y9950D01*
X223147Y12957D01*
D02*
G37*
G36*
X172347D02*
X171562Y11062D01*
Y8838D01*
X172347Y6943D01*
X175354Y9950D01*
X172347Y12957D01*
D02*
G37*
G36*
X121547D02*
X120762Y11062D01*
Y8838D01*
X121547Y6943D01*
X124554Y9950D01*
X121547Y12957D01*
D02*
G37*
G36*
X380350Y8154D02*
X377343Y5147D01*
X379239Y4362D01*
X381461D01*
X383357Y5147D01*
X380350Y8154D01*
D02*
G37*
G36*
X329550D02*
X326543Y5147D01*
X328438Y4362D01*
X330662D01*
X332557Y5147D01*
X329550Y8154D01*
D02*
G37*
G36*
X278750D02*
X275743Y5147D01*
X277638Y4362D01*
X279862D01*
X281757Y5147D01*
X278750Y8154D01*
D02*
G37*
G36*
X227950D02*
X224943Y5147D01*
X226838Y4362D01*
X229062D01*
X230957Y5147D01*
X227950Y8154D01*
D02*
G37*
G36*
X177150D02*
X174143Y5147D01*
X176038Y4362D01*
X178262D01*
X180157Y5147D01*
X177150Y8154D01*
D02*
G37*
G36*
X126350D02*
X123343Y5147D01*
X125239Y4362D01*
X127462D01*
X129357Y5147D01*
X126350Y8154D01*
D02*
G37*
%LPD*%
G36*
X246905Y333773D02*
X246943Y333475D01*
X246999Y333189D01*
X247075Y332914D01*
X247170Y332650D01*
X247284Y332398D01*
X247418Y332157D01*
X247571Y331927D01*
X247743Y331710D01*
X247934Y331503D01*
X246553Y330010D01*
X246344Y330203D01*
X246125Y330373D01*
X245894Y330523D01*
X245653Y330650D01*
X245402Y330756D01*
X245139Y330839D01*
X244866Y330901D01*
X244583Y330941D01*
X244289Y330959D01*
X243984Y330955D01*
X246887Y334082D01*
X246905Y333773D01*
D02*
G37*
G36*
X356101Y319602D02*
X356320Y319430D01*
X356550Y319279D01*
X356791Y319149D01*
X357043Y319039D01*
X357306Y318950D01*
X357580Y318881D01*
X357866Y318833D01*
X358162Y318805D01*
X358470Y318798D01*
X355452Y315781D01*
X355445Y316088D01*
X355417Y316384D01*
X355369Y316670D01*
X355300Y316944D01*
X355211Y317207D01*
X355101Y317459D01*
X354971Y317700D01*
X354820Y317930D01*
X354648Y318149D01*
X354456Y318357D01*
X355893Y319794D01*
X356101Y319602D01*
D02*
G37*
G36*
X356534Y283109D02*
X356297Y283180D01*
X356034Y283244D01*
X355433Y283349D01*
X354730Y283424D01*
X353484Y283480D01*
X353018Y283484D01*
X352662Y285516D01*
X352961Y285529D01*
X353235Y285567D01*
X353485Y285630D01*
X353711Y285719D01*
X353912Y285833D01*
X354090Y285973D01*
X354242Y286138D01*
X354371Y286329D01*
X354475Y286545D01*
X354555Y286786D01*
X356534Y283109D01*
D02*
G37*
G36*
X319899Y286421D02*
X320128Y286231D01*
X320364Y286064D01*
X320607Y285918D01*
X320856Y285795D01*
X321112Y285695D01*
X321374Y285617D01*
X321644Y285561D01*
X321920Y285527D01*
X322202Y285516D01*
Y283484D01*
X321920Y283473D01*
X321644Y283439D01*
X321374Y283383D01*
X321112Y283305D01*
X320856Y283205D01*
X320607Y283082D01*
X320364Y282936D01*
X320128Y282769D01*
X319899Y282579D01*
X319677Y282366D01*
Y286634D01*
X319899Y286421D01*
D02*
G37*
G36*
X280224Y276324D02*
X280444Y276128D01*
X280672Y275955D01*
X280908Y275805D01*
X281152Y275679D01*
X281405Y275575D01*
X281665Y275495D01*
X281933Y275437D01*
X282209Y275403D01*
X282494Y275391D01*
X282405Y273359D01*
X282124Y273348D01*
X281849Y273316D01*
X281578Y273262D01*
X281313Y273186D01*
X281054Y273089D01*
X280800Y272970D01*
X280551Y272830D01*
X280308Y272668D01*
X280070Y272484D01*
X279837Y272279D01*
X280012Y276542D01*
X280224Y276324D01*
D02*
G37*
G36*
X290988Y272208D02*
X290776Y272426D01*
X290556Y272622D01*
X290328Y272795D01*
X290092Y272944D01*
X289848Y273071D01*
X289595Y273175D01*
X289335Y273255D01*
X289067Y273313D01*
X288791Y273347D01*
X288506Y273359D01*
X288595Y275391D01*
X288876Y275402D01*
X289151Y275434D01*
X289422Y275488D01*
X289687Y275564D01*
X289946Y275661D01*
X290200Y275780D01*
X290449Y275920D01*
X290692Y276082D01*
X290930Y276266D01*
X291163Y276471D01*
X290988Y272208D01*
D02*
G37*
G36*
X295649Y276171D02*
X295878Y275981D01*
X296114Y275814D01*
X296357Y275668D01*
X296606Y275545D01*
X296862Y275445D01*
X297125Y275367D01*
X297394Y275311D01*
X297670Y275277D01*
X297952Y275266D01*
Y273234D01*
X297670Y273223D01*
X297394Y273189D01*
X297125Y273133D01*
X296862Y273055D01*
X296606Y272955D01*
X296357Y272832D01*
X296114Y272686D01*
X295878Y272519D01*
X295649Y272329D01*
X295427Y272116D01*
Y276384D01*
X295649Y276171D01*
D02*
G37*
G36*
X135671Y175601D02*
X135481Y175372D01*
X135314Y175136D01*
X135168Y174893D01*
X135045Y174644D01*
X134945Y174388D01*
X134867Y174126D01*
X134811Y173856D01*
X134777Y173580D01*
X134766Y173298D01*
X132734D01*
X132723Y173580D01*
X132689Y173856D01*
X132633Y174126D01*
X132555Y174388D01*
X132455Y174644D01*
X132332Y174893D01*
X132186Y175136D01*
X132019Y175372D01*
X131829Y175601D01*
X131616Y175823D01*
X135884D01*
X135671Y175601D01*
D02*
G37*
G36*
X233040Y88412D02*
X233293Y88201D01*
X233535Y88031D01*
X233765Y87902D01*
X233984Y87813D01*
X234191Y87764D01*
X234387Y87755D01*
X234570Y87787D01*
X234743Y87858D01*
X234904Y87971D01*
X232765Y84362D01*
X232805Y84595D01*
X232811Y84833D01*
X232785Y85074D01*
X232727Y85319D01*
X232636Y85568D01*
X232513Y85821D01*
X232357Y86078D01*
X232168Y86338D01*
X231947Y86602D01*
X231693Y86870D01*
X232775Y88662D01*
X233040Y88412D01*
D02*
G37*
G36*
X244044Y147357D02*
X243852Y147149D01*
X243680Y146930D01*
X243529Y146700D01*
X243399Y146459D01*
X243289Y146207D01*
X243200Y145944D01*
X243131Y145670D01*
X243083Y145384D01*
X243055Y145088D01*
X243048Y144781D01*
X240030Y147798D01*
X240338Y147805D01*
X240634Y147833D01*
X240920Y147881D01*
X241194Y147950D01*
X241457Y148039D01*
X241709Y148149D01*
X241950Y148279D01*
X242180Y148430D01*
X242399Y148602D01*
X242607Y148794D01*
X244044Y147357D01*
D02*
G37*
G36*
X304823Y144366D02*
X304601Y144579D01*
X304372Y144769D01*
X304136Y144936D01*
X303893Y145082D01*
X303644Y145205D01*
X303388Y145305D01*
X303126Y145383D01*
X302856Y145439D01*
X302580Y145473D01*
X302297Y145484D01*
Y147516D01*
X302580Y147527D01*
X302856Y147561D01*
X303126Y147617D01*
X303388Y147695D01*
X303644Y147795D01*
X303893Y147918D01*
X304136Y148064D01*
X304372Y148231D01*
X304601Y148421D01*
X304823Y148634D01*
Y144366D01*
D02*
G37*
G36*
X156044Y142607D02*
X155852Y142399D01*
X155680Y142180D01*
X155529Y141950D01*
X155399Y141709D01*
X155289Y141457D01*
X155200Y141194D01*
X155131Y140920D01*
X155083Y140634D01*
X155055Y140338D01*
X155048Y140030D01*
X152030Y143048D01*
X152338Y143055D01*
X152634Y143083D01*
X152920Y143131D01*
X153194Y143200D01*
X153457Y143289D01*
X153709Y143399D01*
X153950Y143529D01*
X154180Y143680D01*
X154399Y143852D01*
X154607Y144044D01*
X156044Y142607D01*
D02*
G37*
G36*
X381351Y143602D02*
X381570Y143430D01*
X381800Y143279D01*
X382041Y143149D01*
X382293Y143039D01*
X382556Y142950D01*
X382830Y142881D01*
X383116Y142833D01*
X383412Y142805D01*
X383719Y142798D01*
X380702Y139781D01*
X380695Y140088D01*
X380667Y140384D01*
X380619Y140670D01*
X380550Y140944D01*
X380461Y141207D01*
X380351Y141459D01*
X380221Y141700D01*
X380070Y141930D01*
X379898Y142149D01*
X379706Y142357D01*
X381143Y143794D01*
X381351Y143602D01*
D02*
G37*
G36*
X182305Y139662D02*
X182333Y139366D01*
X182381Y139080D01*
X182450Y138806D01*
X182539Y138543D01*
X182649Y138291D01*
X182779Y138050D01*
X182930Y137820D01*
X183102Y137601D01*
X183294Y137393D01*
X181857Y135956D01*
X181649Y136148D01*
X181430Y136320D01*
X181200Y136471D01*
X180959Y136601D01*
X180707Y136711D01*
X180444Y136800D01*
X180170Y136869D01*
X179884Y136917D01*
X179588Y136945D01*
X179280Y136952D01*
X182298Y139970D01*
X182305Y139662D01*
D02*
G37*
G36*
X336323Y106866D02*
X336101Y107079D01*
X335872Y107269D01*
X335636Y107436D01*
X335393Y107582D01*
X335144Y107705D01*
X334888Y107805D01*
X334626Y107883D01*
X334356Y107939D01*
X334080Y107973D01*
X333797Y107984D01*
Y110016D01*
X334080Y110027D01*
X334356Y110061D01*
X334626Y110117D01*
X334888Y110195D01*
X335144Y110295D01*
X335393Y110418D01*
X335636Y110564D01*
X335872Y110731D01*
X336101Y110921D01*
X336323Y111134D01*
Y106866D01*
D02*
G37*
%LPC*%
G36*
X501420Y153340D02*
X496980D01*
X492625Y152474D01*
X488523Y150775D01*
X484832Y148308D01*
X484160Y147636D01*
X499200Y132596D01*
X514240Y147636D01*
X513568Y148308D01*
X509877Y150775D01*
X505775Y152474D01*
X501420Y153340D01*
D02*
G37*
G36*
X482364Y145840D02*
X481692Y145168D01*
X479225Y141477D01*
X477526Y137375D01*
X476660Y133020D01*
Y128580D01*
X477526Y124225D01*
X479225Y120123D01*
X481692Y116432D01*
X482364Y115760D01*
X497404Y130800D01*
X482364Y145840D01*
D02*
G37*
G36*
X516036Y145840D02*
X500996Y130800D01*
X516036Y115760D01*
X516708Y116432D01*
X519175Y120123D01*
X520874Y124225D01*
X521740Y128580D01*
Y133020D01*
X520874Y137375D01*
X519175Y141477D01*
X516708Y145168D01*
X516036Y145840D01*
D02*
G37*
G36*
X499200Y129004D02*
X484160Y113964D01*
X484832Y113292D01*
X488523Y110825D01*
X492625Y109126D01*
X496980Y108260D01*
X501420D01*
X505775Y109126D01*
X509877Y110825D01*
X513568Y113292D01*
X514240Y113964D01*
X499200Y129004D01*
D02*
G37*
G36*
X554000Y89374D02*
X546000D01*
X543944Y88965D01*
X542201Y87800D01*
X541036Y86057D01*
X540627Y84001D01*
Y76000D01*
X541036Y73944D01*
X542201Y72201D01*
X543944Y71036D01*
X546000Y70627D01*
X554000D01*
X556056Y71036D01*
X557799Y72201D01*
X558964Y73944D01*
X559373Y76000D01*
Y84001D01*
X558964Y86057D01*
X557799Y87800D01*
X556056Y88965D01*
X554000Y89374D01*
D02*
G37*
G36*
X551388Y65140D02*
X548612D01*
X545932Y64422D01*
X543528Y63034D01*
X543445Y62951D01*
X550000Y56396D01*
X556555Y62951D01*
X556472Y63034D01*
X554068Y64422D01*
X551388Y65140D01*
D02*
G37*
G36*
X541649Y61155D02*
X541566Y61072D01*
X540178Y58668D01*
X539460Y55988D01*
Y53212D01*
X540178Y50532D01*
X541566Y48128D01*
X541649Y48045D01*
X548204Y54600D01*
X541649Y61155D01*
D02*
G37*
G36*
X558351Y61155D02*
X551796Y54600D01*
X558351Y48045D01*
X558434Y48128D01*
X559822Y50532D01*
X560540Y53212D01*
Y55988D01*
X559822Y58668D01*
X558434Y61072D01*
X558351Y61155D01*
D02*
G37*
G36*
X550000Y52804D02*
X543445Y46249D01*
X543528Y46166D01*
X545932Y44778D01*
X548612Y44060D01*
X551388D01*
X554068Y44778D01*
X556472Y46166D01*
X556555Y46249D01*
X550000Y52804D01*
D02*
G37*
G36*
X462062Y38838D02*
X459838D01*
X457943Y38053D01*
X460950Y35046D01*
X463957Y38053D01*
X462062Y38838D01*
D02*
G37*
G36*
X603020Y51740D02*
X598580D01*
X594225Y50874D01*
X590123Y49175D01*
X586432Y46708D01*
X585760Y46036D01*
X600800Y30996D01*
X615840Y46036D01*
X615168Y46708D01*
X611477Y49175D01*
X607375Y50874D01*
X603020Y51740D01*
D02*
G37*
G36*
X465753Y36257D02*
X462746Y33250D01*
X465753Y30243D01*
X466538Y32139D01*
Y34362D01*
X465753Y36257D01*
D02*
G37*
G36*
X456147Y36257D02*
X455362Y34362D01*
Y32139D01*
X456147Y30243D01*
X459154Y33250D01*
X456147Y36257D01*
D02*
G37*
G36*
X460950Y31454D02*
X457943Y28447D01*
X459838Y27662D01*
X462062D01*
X463957Y28447D01*
X460950Y31454D01*
D02*
G37*
G36*
X583964Y44240D02*
X583292Y43568D01*
X580825Y39877D01*
X579126Y35775D01*
X578260Y31420D01*
Y26980D01*
X579126Y22625D01*
X580825Y18523D01*
X583292Y14832D01*
X583964Y14160D01*
X599004Y29200D01*
X583964Y44240D01*
D02*
G37*
G36*
X600800Y27404D02*
X585760Y12364D01*
X586432Y11692D01*
X590123Y9225D01*
X594225Y7526D01*
X598580Y6660D01*
X603020D01*
X607375Y7526D01*
X611477Y9225D01*
X615168Y11692D01*
X615840Y12364D01*
X600800Y27404D01*
D02*
G37*
%LPD*%
D19*
X409500Y279320D02*
D03*
D26*
X302750Y298500D02*
D03*
D75*
X382980Y288431D02*
G03*
X381868Y287868I317J-2007D01*
G01*
X273825Y109000D02*
X338500D01*
X252075Y130750D02*
X273825Y109000D01*
X188500Y130750D02*
X252075D01*
X179250Y140000D02*
X188500Y130750D01*
X368250Y274250D02*
X381868Y287868D01*
X256584Y161334D02*
X362166D01*
X383750Y139750D01*
X350000Y324250D02*
X358500Y315750D01*
X253750Y324250D02*
X350000D01*
X317500Y284500D02*
X354900D01*
X356400Y286000D02*
X357500D01*
X354900Y284500D02*
X356400Y286000D01*
X240000Y144750D02*
X256584Y161334D01*
X293250Y274250D02*
X368250D01*
X293125Y274375D02*
X293250Y274250D01*
X277750Y274500D02*
X277875Y274375D01*
X293125D01*
X382980Y288431D02*
X385000Y288750D01*
X152000Y140000D02*
X160750Y148750D01*
X183000D01*
X193500Y138250D02*
X247750D01*
X183000Y148750D02*
X193500Y138250D01*
X243679Y334321D02*
X253750Y324250D01*
X133750Y136000D02*
Y178000D01*
Y136000D02*
X151250Y118500D01*
X256000Y146500D02*
X307000D01*
X247750Y138250D02*
X256000Y146500D01*
X151250Y118500D02*
X221250D01*
X228125Y111625D01*
Y91875D02*
Y111625D01*
Y91875D02*
X240000Y80000D01*
D80*
D03*
Y55001D02*
D03*
Y105000D02*
D03*
D81*
X315000Y32001D02*
D03*
Y128000D02*
D03*
D82*
X550000Y54600D02*
D03*
D83*
X600800Y29200D02*
D03*
X499200Y130800D02*
D03*
D84*
X550000Y80000D02*
D03*
D85*
X471480Y362020D02*
D03*
X700680Y192520D02*
D03*
X751480Y321020D02*
D03*
Y256020D02*
D03*
X471480Y285820D02*
D03*
X751480Y192020D02*
D03*
D86*
X638000Y54250D02*
D03*
D87*
Y104250D02*
D03*
D88*
X812750Y300250D02*
D03*
D89*
Y217649D02*
D03*
D90*
X55000Y53000D02*
D03*
X80000D02*
D03*
X105000D02*
D03*
X80000Y107000D02*
D03*
X105000D02*
D03*
X55000D02*
D03*
D91*
X62500Y225250D02*
D03*
D92*
Y285250D02*
D03*
Y245250D02*
D03*
Y305250D02*
D03*
Y265250D02*
D03*
Y325250D02*
D03*
D93*
X456550Y263950D02*
D03*
X431150Y111550D02*
D03*
X405750Y365550D02*
D03*
Y60750D02*
D03*
X380350Y9950D02*
D03*
X354950Y60750D02*
D03*
X329550Y9950D02*
D03*
X304150Y60750D02*
D03*
X278750Y9950D02*
D03*
X227950Y213150D02*
D03*
Y9950D02*
D03*
X202550Y263950D02*
D03*
X177150Y213150D02*
D03*
X202550Y162350D02*
D03*
X177150Y111550D02*
D03*
Y9950D02*
D03*
X126350Y213150D02*
D03*
Y9950D02*
D03*
X460950Y33250D02*
D03*
X451200Y106500D02*
D03*
X405500Y97250D02*
D03*
X338500Y109000D02*
D03*
X383750Y124750D02*
D03*
X394278Y169528D02*
D03*
X383750Y139750D02*
D03*
X358500Y315750D02*
D03*
X357500Y286000D02*
D03*
X414500Y319000D02*
D03*
X354250Y268250D02*
D03*
X427250Y226000D02*
D03*
X425250Y205250D02*
D03*
X355000Y204500D02*
D03*
X344000Y175000D02*
D03*
X303500Y210250D02*
D03*
X297000Y249000D02*
D03*
X285250Y222500D02*
D03*
X139000Y233500D02*
D03*
X276250Y156000D02*
D03*
X237750Y192500D02*
D03*
X127500Y157750D02*
D03*
X216000Y76417D02*
D03*
Y95000D02*
D03*
Y39250D02*
D03*
Y57833D02*
D03*
X196000Y69250D02*
D03*
X240000Y144750D02*
D03*
X293250Y274250D02*
D03*
X277750Y274500D02*
D03*
X385000Y288750D02*
D03*
X152000Y140000D02*
D03*
X243840Y334000D02*
D03*
X133750Y178000D02*
D03*
X179250Y140000D02*
D03*
X307000Y146500D02*
D03*
X317500Y284500D02*
D03*
D94*
X409500Y273820D02*
D03*
Y284820D02*
D03*
X308550Y292700D02*
D03*
Y304300D02*
D03*
X296950Y304250D02*
D03*
X302750Y298500D02*
D03*
X296950Y292700D02*
D03*
M02*
