G04*
G04 #@! TF.GenerationSoftware,Altium Limited,Altium Designer,25.6.2 (33)*
G04*
G04 Layer_Color=16711935*
%FSLAX44Y44*%
%MOMM*%
G71*
G04*
G04 #@! TF.SameCoordinates,321F6365-E8C5-40D8-95C8-D2BB24AFB59A*
G04*
G04*
G04 #@! TF.FilePolarity,Positive*
G04*
G01*
G75*
%ADD10C,0.0500*%
D10*
X386750Y76000D02*
X402750D01*
X386750Y68000D02*
X402750D01*
Y76000D01*
X386750Y68000D02*
Y76000D01*
X299500Y202000D02*
X307500D01*
X299500Y186000D02*
X307500D01*
Y202000D01*
X299500Y186000D02*
Y202000D01*
X409000Y200500D02*
X425000D01*
X409000Y192500D02*
X425000D01*
X409000D02*
Y200500D01*
X425000Y192500D02*
Y200500D01*
X384750Y159250D02*
Y176750D01*
X415250Y159250D02*
Y176750D01*
X384750Y159250D02*
X415250D01*
X384750Y176750D02*
X415250D01*
X146750Y105250D02*
X198750D01*
X146750Y78250D02*
X198750D01*
X146750D02*
Y105250D01*
X198750Y78250D02*
Y105250D01*
X147500Y58000D02*
X199500D01*
X147500Y31000D02*
X199500D01*
X147500D02*
Y58000D01*
X199500Y31000D02*
Y58000D01*
X370500Y124000D02*
Y140000D01*
X378500Y124000D02*
Y140000D01*
X370500Y124000D02*
X378500D01*
X370500Y140000D02*
X378500D01*
X328000Y152750D02*
X358500D01*
X328000Y170250D02*
X358500D01*
X328000Y152750D02*
Y170250D01*
X358500Y152750D02*
Y170250D01*
X399000Y268820D02*
X420000D01*
X399000Y289820D02*
X420000D01*
Y268820D02*
Y289820D01*
X399000Y268820D02*
Y289820D01*
X414000Y256250D02*
X422000D01*
X414000Y240250D02*
X422000D01*
X414000D02*
Y256250D01*
X422000Y240250D02*
Y256250D01*
X399000Y240250D02*
X407000D01*
X399000Y256250D02*
X407000D01*
Y240250D02*
Y256250D01*
X399000Y240250D02*
Y256250D01*
X418500Y221750D02*
Y229750D01*
X402500Y221750D02*
Y229750D01*
X418500D01*
X402500Y221750D02*
X418500D01*
X429000Y240250D02*
X437000D01*
X429000Y256250D02*
X437000D01*
Y240250D02*
Y256250D01*
X429000Y240250D02*
Y256250D01*
X397000Y299750D02*
X413000D01*
X397000Y307750D02*
X413000D01*
Y299750D02*
Y307750D01*
X397000Y299750D02*
Y307750D01*
X429000Y319250D02*
X437000D01*
X429000Y303250D02*
X437000D01*
Y319250D01*
X429000Y303250D02*
Y319250D01*
Y270320D02*
X437000D01*
X429000Y286320D02*
X437000D01*
Y270320D02*
Y286320D01*
X429000Y270320D02*
Y286320D01*
X208000Y126000D02*
Y134000D01*
X224000Y126000D02*
Y134000D01*
X208000Y126000D02*
X224000D01*
X208000Y134000D02*
X224000D01*
X287250Y283000D02*
Y314000D01*
X318250Y283000D02*
Y314000D01*
X287250D02*
X318250D01*
X287250Y283000D02*
X318250D01*
X116000Y352250D02*
X196000D01*
X87500Y323750D02*
X116000Y352250D01*
X87500Y215250D02*
Y323750D01*
Y215250D02*
X224500D01*
Y323750D01*
X196000Y352250D02*
X224500Y323750D01*
X245500Y354750D02*
Y372750D01*
X274000Y354750D02*
Y372750D01*
X245500D02*
X274000D01*
X245500Y354750D02*
X274000D01*
X274000Y303500D02*
Y335500D01*
X249000Y303500D02*
Y335500D01*
X274000D01*
X249000Y303500D02*
X274000D01*
X365250Y270750D02*
X373250D01*
X365250Y286750D02*
X373250D01*
Y270750D02*
Y286750D01*
X365250Y270750D02*
Y286750D01*
X338000Y324450D02*
Y367550D01*
X291000Y324450D02*
Y367550D01*
X338000D01*
X291000Y324450D02*
X338000D01*
X262000Y152500D02*
Y160500D01*
X246000Y152500D02*
Y160500D01*
X262000D01*
X246000Y152500D02*
X262000D01*
X227500Y156000D02*
X235500D01*
X227500Y172000D02*
X235500D01*
Y156000D02*
Y172000D01*
X227500Y156000D02*
Y172000D01*
X194000Y126000D02*
Y134000D01*
X178000Y126000D02*
Y134000D01*
X194000D01*
X178000Y126000D02*
X194000D01*
X127000Y151500D02*
X143000D01*
X127000Y143500D02*
X143000D01*
X127000D02*
Y151500D01*
X143000Y143500D02*
Y151500D01*
X167000Y142550D02*
Y192550D01*
X207000Y142550D02*
Y192550D01*
X167000D02*
X207000D01*
X167000Y142550D02*
X207000D01*
X242000Y288500D02*
Y304500D01*
X234000Y288500D02*
Y304500D01*
X242000D01*
X234000Y288500D02*
X242000D01*
X252500Y293000D02*
X268500D01*
X252500Y285000D02*
X268500D01*
X252500D02*
Y293000D01*
X268500Y285000D02*
Y293000D01*
X266250Y212250D02*
X283750D01*
X266250Y181750D02*
X283750D01*
X266250D02*
Y212250D01*
X283750Y181750D02*
Y212250D01*
X261000Y167500D02*
Y175500D01*
X277000Y167500D02*
Y175500D01*
X261000D02*
X277000D01*
X261000Y167500D02*
X277000D01*
X330750Y308000D02*
Y316000D01*
X346750Y308000D02*
Y316000D01*
X330750Y308000D02*
X346750D01*
X330750Y316000D02*
X346750D01*
X370500Y154000D02*
Y170000D01*
X378500Y154000D02*
Y170000D01*
X370500Y154000D02*
X378500D01*
X370500Y170000D02*
X378500D01*
X298000Y160500D02*
X314000D01*
X298000Y152500D02*
X314000D01*
X298000D02*
Y160500D01*
X314000Y152500D02*
Y160500D01*
X287500Y248500D02*
Y264500D01*
X279500Y248500D02*
Y264500D01*
Y248500D02*
X287500D01*
X279500Y264500D02*
X287500D01*
X242500Y223000D02*
X250500D01*
X242500Y207000D02*
X250500D01*
X242500D02*
Y223000D01*
X250500Y207000D02*
Y223000D01*
X381250Y91250D02*
X411250D01*
X381250Y105250D02*
X411250D01*
X381250Y91250D02*
Y105250D01*
X411250Y91250D02*
Y105250D01*
X242500Y177000D02*
Y193000D01*
X250500Y177000D02*
Y193000D01*
X242500Y177000D02*
X250500D01*
X242500Y193000D02*
X250500D01*
X412750Y124000D02*
Y140000D01*
X404750Y124000D02*
Y140000D01*
X412750D01*
X404750Y124000D02*
X412750D01*
X138500Y162000D02*
X146500D01*
X138500Y178000D02*
X146500D01*
Y162000D02*
Y178000D01*
X138500Y162000D02*
Y178000D01*
X425050Y10750D02*
X441050D01*
X425050Y18750D02*
X441050D01*
X425050Y10750D02*
Y18750D01*
X441050Y10750D02*
Y18750D01*
X389750Y124000D02*
X397750D01*
X389750Y140000D02*
X397750D01*
X389750Y124000D02*
Y140000D01*
X397750Y124000D02*
Y140000D01*
X268500Y270000D02*
Y278000D01*
X252500Y270000D02*
Y278000D01*
Y270000D02*
X268500D01*
X252500Y278000D02*
X268500D01*
X323750Y260000D02*
X339750D01*
X323750Y268000D02*
X339750D01*
X323750Y260000D02*
Y268000D01*
X339750Y260000D02*
Y268000D01*
X261000Y218500D02*
X277000D01*
X261000Y226500D02*
X277000D01*
X261000Y218500D02*
Y226500D01*
X277000Y218500D02*
Y226500D01*
X330750Y293000D02*
Y301000D01*
X346750Y293000D02*
Y301000D01*
X330750D02*
X346750D01*
X330750Y293000D02*
X346750D01*
X365250Y300750D02*
Y316750D01*
X373250Y300750D02*
Y316750D01*
X365250D02*
X373250D01*
X365250Y300750D02*
X373250D01*
X330750Y278000D02*
Y286000D01*
X346750Y278000D02*
Y286000D01*
X330750D02*
X346750D01*
X330750Y278000D02*
X346750D01*
X305250Y264500D02*
X313250D01*
X305250Y248500D02*
X313250D01*
Y264500D01*
X305250Y248500D02*
Y264500D01*
X298000Y167500D02*
Y175500D01*
X314000Y167500D02*
Y175500D01*
X298000D02*
X314000D01*
X298000Y167500D02*
X314000D01*
M02*
