G04*
G04 #@! TF.GenerationSoftware,Altium Limited,Altium Designer,25.6.2 (33)*
G04*
G04 Layer_Color=32768*
%FSLAX44Y44*%
%MOMM*%
G71*
G04*
G04 #@! TF.SameCoordinates,51367FFA-E2D0-4688-BCD1-F7C66F822469*
G04*
G04*
G04 #@! TF.FilePolarity,Positive*
G04*
G01*
G75*
%ADD10C,0.0500*%
%ADD12C,0.1000*%
D10*
X361250Y140500D02*
X391250D01*
X361250D02*
Y155500D01*
X391250Y140500D02*
Y155500D01*
X361250D02*
X391250D01*
X325250Y140500D02*
X361250D01*
X325250Y182500D02*
X361250D01*
X325250Y140500D02*
Y182500D01*
X361250Y140500D02*
Y182500D01*
X445500Y168000D02*
X775500D01*
X445500D02*
Y388000D01*
X775500D01*
Y168000D02*
Y388000D01*
X396450Y266320D02*
X422550D01*
X396450Y292320D02*
X422550D01*
Y266320D02*
Y292320D01*
X396450Y266320D02*
Y292320D01*
X410500Y233250D02*
Y263250D01*
X425500Y233250D02*
Y263250D01*
X410500Y233250D02*
X425500D01*
X410500Y263250D02*
X425500D01*
X410500Y233250D02*
Y263250D01*
X395500Y233250D02*
Y263250D01*
X410500D01*
X395500Y233250D02*
X410500D01*
X395500D02*
X425500D01*
X395500Y218250D02*
X425500D01*
X395500D02*
Y233250D01*
X425500Y218250D02*
Y233250D01*
X440500Y233250D02*
Y263250D01*
X425500Y233250D02*
Y263250D01*
X440500D01*
X425500Y233250D02*
X440500D01*
X390000Y296250D02*
X420000D01*
X390000D02*
Y311250D01*
X420000Y296250D02*
Y311250D01*
X390000D02*
X420000D01*
X440500Y296250D02*
Y326250D01*
X425500Y296250D02*
X440500D01*
X425500Y326250D02*
X440500D01*
X425500Y296250D02*
Y326250D01*
X440500Y263320D02*
Y293320D01*
X425500Y263320D02*
Y293320D01*
X440500D01*
X425500Y263320D02*
X440500D01*
X363879Y19500D02*
Y140500D01*
X231000D02*
X363879D01*
X231000Y19500D02*
Y140500D01*
Y19500D02*
X363879D01*
X201000Y122500D02*
X231000D01*
X201000Y137500D02*
X231000D01*
Y122500D02*
Y137500D01*
X201000Y122500D02*
Y137500D01*
X281750Y277500D02*
Y319500D01*
X323750Y277500D02*
Y319500D01*
X281750D02*
X323750D01*
X281750Y277500D02*
X323750D01*
X77500Y193750D02*
Y373750D01*
X234500Y193750D02*
Y373750D01*
X77500Y193750D02*
X234500D01*
X77500Y373750D02*
X234500D01*
X236750Y353250D02*
Y374250D01*
X282750Y353250D02*
Y374250D01*
X236750D02*
X282750D01*
X236750Y353250D02*
X282750D01*
X277500Y296500D02*
Y342500D01*
X245500Y296500D02*
Y342500D01*
X277500D01*
X245500Y296500D02*
X277500D01*
X376750Y259250D02*
Y289250D01*
X361750Y259250D02*
Y289250D01*
X376750D01*
X361750Y259250D02*
X376750D01*
X346750Y244250D02*
X376750D01*
X346750Y259250D02*
X376750D01*
Y244250D02*
Y259250D01*
X346750Y244250D02*
Y259250D01*
X42615Y137600D02*
X111115D01*
Y197500D01*
X42615D02*
X111115D01*
X42615Y137600D02*
Y197500D01*
X36500Y112250D02*
X123500Y112250D01*
Y47250D02*
Y112250D01*
X36500Y47250D02*
X123500Y47250D01*
X36500Y47250D02*
Y112250D01*
X346250Y321500D02*
Y370500D01*
X282750Y321500D02*
Y370500D01*
X346250D01*
X282750Y321500D02*
X346250D01*
X141500Y62000D02*
X205500D01*
X141500Y27000D02*
X205500D01*
X141500D02*
Y62000D01*
X205500Y27000D02*
Y62000D01*
X140750Y109250D02*
X204750D01*
X140750Y74250D02*
X204750D01*
X140750D02*
Y109250D01*
X204750Y74250D02*
Y109250D01*
X239000Y164000D02*
X269000D01*
X239000Y149000D02*
X269000D01*
X239000D02*
Y164000D01*
X269000Y149000D02*
Y164000D01*
X239000Y149000D02*
Y179000D01*
X224000Y149000D02*
Y179000D01*
X239000D01*
X224000Y149000D02*
X239000D01*
X171000Y137500D02*
X201000D01*
X171000Y122500D02*
X201000D01*
X171000D02*
Y137500D01*
X201000Y122500D02*
Y137500D01*
X120000Y155000D02*
X150000D01*
Y140000D02*
Y155000D01*
X120000Y140000D02*
Y155000D01*
Y140000D02*
X150000D01*
X150000Y140050D02*
Y195050D01*
X224000Y140050D02*
Y195050D01*
X150000D02*
X224000D01*
X150000Y140050D02*
X224000D01*
X245500Y281500D02*
Y311500D01*
X230500Y281500D02*
X245500D01*
X230500Y311500D02*
X245500D01*
X230500Y281500D02*
Y311500D01*
X245500Y296500D02*
X275500D01*
Y281500D02*
Y296500D01*
X245500Y281500D02*
Y296500D01*
Y281500D02*
X275500D01*
X254250Y197250D02*
Y239250D01*
X290250Y197250D02*
Y239250D01*
X254250Y197250D02*
X290250D01*
X254250Y239250D02*
X290250D01*
X289250Y149000D02*
Y179000D01*
X274250Y149000D02*
X289250D01*
X274250Y179000D02*
X289250D01*
X274250Y149000D02*
Y179000D01*
X464500Y153800D02*
X623250D01*
Y6200D02*
Y153800D01*
X464500Y6200D02*
X623250D01*
X464500D02*
Y153800D01*
X323750Y304500D02*
X353750D01*
X323750Y319500D02*
X353750D01*
Y304500D02*
Y319500D01*
X323750Y304500D02*
Y319500D01*
X290250Y197500D02*
X320250D01*
X290250D02*
Y212500D01*
X320250Y197500D02*
Y212500D01*
X290250D02*
X320250D01*
X323000Y239250D02*
X359000D01*
X323000Y197250D02*
X359000D01*
Y239250D01*
X323000Y197250D02*
Y239250D01*
X414000Y18750D02*
Y103750D01*
X463000Y18750D02*
Y103750D01*
X414000Y18750D02*
X463000D01*
X414000Y103750D02*
X463000D01*
X291000Y164000D02*
X321000D01*
Y149000D02*
Y164000D01*
X291000Y149000D02*
Y164000D01*
Y149000D02*
X321000D01*
X276000Y271500D02*
X291000D01*
X276000Y241500D02*
X291000D01*
Y271500D01*
X276000Y241500D02*
Y271500D01*
X290250Y227500D02*
X320250D01*
Y212500D02*
Y227500D01*
X290250Y212500D02*
Y227500D01*
Y212500D02*
X320250D01*
X361750Y209500D02*
Y239500D01*
X376750D01*
X361750Y209500D02*
X376750D01*
Y239500D01*
X381500Y22750D02*
X411500D01*
X381500Y37750D02*
X411500D01*
Y22750D02*
Y37750D01*
X381500Y22750D02*
Y37750D01*
X259250Y182250D02*
X289250D01*
X259250Y197250D02*
X289250D01*
Y182250D02*
Y197250D01*
X259250Y182250D02*
Y197250D01*
X379000Y37750D02*
X414000D01*
X379000Y75250D02*
X414000D01*
X379000Y37750D02*
Y75250D01*
X414000Y37750D02*
Y75250D01*
X254000Y164100D02*
Y194100D01*
X239000Y164100D02*
X254000D01*
X239000Y194100D02*
X254000D01*
X239000Y164100D02*
Y194100D01*
X316750Y182500D02*
X346750D01*
X316750D02*
Y197500D01*
X346750Y182500D02*
Y197500D01*
X316750D02*
X346750D01*
X150000Y155000D02*
Y185000D01*
X135000Y155000D02*
Y185000D01*
X150000D01*
X135000Y155000D02*
X150000D01*
X443750Y133750D02*
X458750D01*
X443750Y103750D02*
X458750D01*
Y133750D01*
X443750Y103750D02*
Y133750D01*
X346750Y182500D02*
X376750D01*
X346750D02*
Y197500D01*
X376750Y182500D02*
Y197500D01*
X346750D02*
X376750D01*
X245500Y266500D02*
X275500D01*
X245500D02*
Y281500D01*
X275500Y266500D02*
Y281500D01*
X245500D02*
X275500D01*
X346750Y256500D02*
Y271500D01*
X316750Y256500D02*
Y271500D01*
Y256500D02*
X346750D01*
X316750Y271500D02*
X346750D01*
X239250Y229500D02*
X254250D01*
X239250Y199500D02*
X254250D01*
Y229500D01*
X239250Y199500D02*
Y229500D01*
X323750Y304500D02*
X353750D01*
Y289500D02*
Y304500D01*
X323750Y289500D02*
Y304500D01*
Y289500D02*
X353750D01*
X361750Y289250D02*
X376750D01*
X361750Y319250D02*
X376750D01*
X361750Y289250D02*
Y319250D01*
X376750Y289250D02*
Y319250D01*
X323750Y289500D02*
X353750D01*
Y274500D02*
Y289500D01*
X323750Y274500D02*
Y289500D01*
Y274500D02*
X353750D01*
X316750Y241500D02*
Y271500D01*
X301750Y241500D02*
X316750D01*
X301750Y271500D02*
X316750D01*
X301750Y241500D02*
Y271500D01*
X291000Y179000D02*
X321000D01*
Y164000D02*
Y179000D01*
X291000Y164000D02*
Y179000D01*
Y164000D02*
X321000D01*
D12*
X376250Y144000D02*
Y152000D01*
X372250Y148000D02*
X380250D01*
X343250Y156500D02*
Y166500D01*
X338250Y161500D02*
X348250D01*
X610500Y273000D02*
Y283000D01*
X605500Y278000D02*
X615500D01*
X409500Y274320D02*
Y284320D01*
X404500Y279320D02*
X414500D01*
X414000Y248250D02*
X422000D01*
X418000Y244250D02*
Y252250D01*
X399000Y248250D02*
X407000D01*
X403000Y244250D02*
Y252250D01*
X410500Y221750D02*
Y229750D01*
X406500Y225750D02*
X414500D01*
X429000Y248250D02*
X437000D01*
X433000Y244250D02*
Y252250D01*
X405000Y299750D02*
Y307750D01*
X401000Y303750D02*
X409000D01*
X433000Y307250D02*
Y315250D01*
X429000Y311250D02*
X437000D01*
X429000Y278320D02*
X437000D01*
X433000Y274320D02*
Y282320D01*
X638000Y74250D02*
Y84250D01*
X633000Y79250D02*
X643000D01*
X315000Y75001D02*
Y85000D01*
X310000Y80000D02*
X320000D01*
X216000Y126000D02*
Y134000D01*
X212000Y130000D02*
X220000D01*
X297750Y298500D02*
X307750D01*
X302750Y293500D02*
Y303500D01*
X151000Y283750D02*
X161000D01*
X156000Y278750D02*
Y288750D01*
X254750Y363750D02*
X264750D01*
X259750Y358750D02*
Y368750D01*
X256500Y319500D02*
X266500D01*
X261500Y314500D02*
Y324500D01*
X365250Y274250D02*
X373250D01*
X369250Y270250D02*
Y278250D01*
X361750Y247750D02*
Y255750D01*
X357750Y251750D02*
X365750D01*
X71865Y167550D02*
X81865D01*
X76865Y162550D02*
Y172550D01*
X80000Y74977D02*
Y84977D01*
X75000Y79977D02*
X85000D01*
X314500Y341000D02*
Y351000D01*
X309500Y346000D02*
X319500D01*
X812750Y253950D02*
Y263950D01*
X807750Y258950D02*
X817750D01*
X788250Y349700D02*
X915250D01*
Y168090D02*
Y349700D01*
X788250Y168090D02*
Y349700D01*
Y168090D02*
X915250D01*
X173500Y39500D02*
Y49500D01*
X168500Y44500D02*
X178500D01*
X172750Y86750D02*
Y96750D01*
X167750Y91750D02*
X177750D01*
X254000Y152500D02*
Y160500D01*
X250000Y156500D02*
X258000D01*
X227500Y164000D02*
X235500D01*
X231500Y160000D02*
Y168000D01*
X186000Y126000D02*
Y134000D01*
X182000Y130000D02*
X190000D01*
X135000Y143500D02*
Y151500D01*
X131000Y147500D02*
X139000D01*
X182000Y167550D02*
X192000D01*
X187000Y162550D02*
Y172550D01*
X234000Y296500D02*
X242000D01*
X238000Y292500D02*
Y300500D01*
X260500Y285000D02*
Y293000D01*
X256500Y289000D02*
X264500D01*
X267250Y218250D02*
X277250D01*
X272250Y213250D02*
Y223250D01*
X281750Y160000D02*
Y168000D01*
X277750Y164000D02*
X285750D01*
X550000Y75000D02*
Y85000D01*
X545000Y80000D02*
X555000D01*
X338750Y308000D02*
Y316000D01*
X334750Y312000D02*
X342750D01*
X305250Y201000D02*
Y209000D01*
X301250Y205000D02*
X309250D01*
X341000Y213250D02*
Y223250D01*
X336000Y218250D02*
X346000D01*
X433500Y61250D02*
X443500D01*
X438500Y56250D02*
Y66250D01*
X306000Y152500D02*
Y160500D01*
X302000Y156500D02*
X310000D01*
X283500Y252500D02*
Y260500D01*
X279500Y256500D02*
X287500D01*
X305250Y216000D02*
Y224000D01*
X301250Y220000D02*
X309250D01*
X369250Y220500D02*
Y228500D01*
X365250Y224500D02*
X373250D01*
X396500Y26250D02*
Y34250D01*
X392500Y30250D02*
X400500D01*
X274250Y185750D02*
Y193750D01*
X270250Y189750D02*
X278250D01*
X396500Y51500D02*
Y61500D01*
X391500Y56500D02*
X401500D01*
X242500Y179100D02*
X250500D01*
X246500Y175100D02*
Y183100D01*
X331750Y186000D02*
Y194000D01*
X327750Y190000D02*
X335750D01*
X138500Y170000D02*
X146500D01*
X142500Y166000D02*
Y174000D01*
X451250Y114750D02*
Y122750D01*
X447250Y118750D02*
X455250D01*
X357750Y190000D02*
X365750D01*
X361750Y186000D02*
Y194000D01*
X256500Y274000D02*
X264500D01*
X260500Y270000D02*
Y278000D01*
X33000Y275250D02*
X43000D01*
X38000Y270250D02*
Y280250D01*
X327750Y264000D02*
X335750D01*
X331750Y260000D02*
Y268000D01*
X246750Y210500D02*
Y218500D01*
X242750Y214500D02*
X250750D01*
X334750Y297000D02*
X342750D01*
X338750Y293000D02*
Y301000D01*
X369250Y300250D02*
Y308250D01*
X365250Y304250D02*
X373250D01*
X334750Y282000D02*
X342750D01*
X338750Y278000D02*
Y286000D01*
X309250Y252500D02*
Y260500D01*
X305250Y256500D02*
X313250D01*
X302000Y171500D02*
X310000D01*
X306000Y167500D02*
Y175500D01*
M02*
