G04*
G04 #@! TF.GenerationSoftware,Altium Limited,Altium Designer,25.6.2 (33)*
G04*
G04 Layer_Color=2752767*
%FSLAX44Y44*%
%MOMM*%
G71*
G04*
G04 #@! TF.SameCoordinates,51367FFA-E2D0-4688-BCD1-F7C66F822469*
G04*
G04*
G04 #@! TF.FilePolarity,Positive*
G04*
G01*
G75*
%ADD91C,0.1693*%
%ADD92C,0.1270*%
%ADD93C,0.1016*%
D91*
X705760Y192520D02*
G03*
X705760Y192520I-5080J0D01*
G01*
X756560Y321020D02*
G03*
X756560Y321020I-5080J0D01*
G01*
Y256020D02*
G03*
X756560Y256020I-5080J0D01*
G01*
X476560Y362020D02*
G03*
X476560Y362020I-5080J0D01*
G01*
Y285820D02*
G03*
X476560Y285820I-5080J0D01*
G01*
X756560Y192020D02*
G03*
X756560Y192020I-5080J0D01*
G01*
X320080Y128000D02*
G03*
X320080Y128000I-5080J0D01*
G01*
Y32001D02*
G03*
X320080Y32001I-5080J0D01*
G01*
D92*
X632920Y49170D02*
X635460Y54250D01*
X632920Y59330D01*
X638000Y56790D01*
X643080Y59330D01*
X640540Y54250D01*
X643080Y49170D01*
X638000Y51710D01*
X632920Y49170D01*
X634952Y51202D02*
X636476Y54250D01*
X634952Y57298D01*
X638000Y55774D01*
X641048Y57298D01*
X639524Y54250D01*
X641048Y51202D01*
X638000Y52726D01*
X634952Y51202D01*
X632920Y99170D02*
X635460Y104250D01*
X632920Y109330D01*
X638000Y106790D01*
X643080Y109330D01*
X640540Y104250D01*
X643080Y99170D01*
X638000Y101710D01*
X632920Y99170D01*
X634952Y101202D02*
X636476Y104250D01*
X634952Y107298D01*
X638000Y105774D01*
X641048Y107298D01*
X639524Y104250D01*
X641048Y101202D01*
X638000Y102726D01*
X634952Y101202D01*
X812750Y295170D02*
X807670Y305330D01*
X817830D01*
X812750Y295170D01*
X240000Y99921D02*
X234920Y110080D01*
X245080D01*
X240000Y99921D01*
Y101952D02*
X236952Y108048D01*
X243048D01*
X240000Y101952D01*
X812750Y212570D02*
X807670Y222730D01*
X817830D01*
X812750Y212570D01*
X889920Y369920D02*
X892460D01*
X895000Y372460D01*
X897540Y369920D01*
X900080D01*
Y372460D01*
X897540Y375000D01*
X900080Y377540D01*
Y380080D01*
X897540D01*
X895000Y377540D01*
X892460Y380080D01*
X889920D01*
Y377540D01*
X892460Y375000D01*
X889920Y372460D01*
Y369920D01*
X240000Y49921D02*
X234920Y60081D01*
X245080D01*
X240000Y49921D01*
Y51953D02*
X236952Y58049D01*
X243048D01*
X240000Y51953D01*
Y74921D02*
X234920Y85080D01*
X245080D01*
X240000Y74921D01*
Y76953D02*
X236952Y83048D01*
X243048D01*
X240000Y76953D01*
X49920Y47920D02*
Y58080D01*
X60080D01*
Y47920D01*
X49920D01*
X51952Y49952D02*
Y56048D01*
X58048D01*
Y49952D01*
X51952D01*
X74920Y47920D02*
Y58080D01*
X85080D01*
Y47920D01*
X74920D01*
X76952Y49952D02*
Y56048D01*
X83048D01*
Y49952D01*
X76952D01*
X99920Y47920D02*
Y58080D01*
X110080D01*
Y47920D01*
X99920D01*
X101952Y49952D02*
Y56048D01*
X108048D01*
Y49952D01*
X101952D01*
X74920Y101920D02*
Y112080D01*
X85080D01*
Y101920D01*
X74920D01*
X76952Y103952D02*
Y110048D01*
X83048D01*
Y103952D01*
X76952D01*
X99920Y101920D02*
Y112080D01*
X110080D01*
Y101920D01*
X99920D01*
X101952Y103952D02*
Y110048D01*
X108048D01*
Y103952D01*
X101952D01*
X49920Y101920D02*
Y112080D01*
X60080D01*
Y101920D01*
X49920D01*
X51952Y103952D02*
Y110048D01*
X58048D01*
Y103952D01*
X51952D01*
X104920Y74920D02*
X107460Y80000D01*
X104920Y85080D01*
X110000Y82540D01*
X115080Y85080D01*
X112540Y80000D01*
X115080Y74920D01*
X110000Y77460D01*
X104920Y74920D01*
X19920Y19920D02*
X22460D01*
X25000Y22460D01*
X27540Y19920D01*
X30080D01*
Y22460D01*
X27540Y25000D01*
X30080Y27540D01*
Y30080D01*
X27540D01*
X25000Y27540D01*
X22460Y30080D01*
X19920D01*
Y27540D01*
X22460Y25000D01*
X19920Y22460D01*
Y19920D01*
Y369920D02*
X22460D01*
X25000Y372460D01*
X27540Y369920D01*
X30080D01*
Y372460D01*
X27540Y375000D01*
X30080Y377540D01*
Y380080D01*
X27540D01*
X25000Y377540D01*
X22460Y380080D01*
X19920D01*
Y377540D01*
X22460Y375000D01*
X19920Y372460D01*
Y369920D01*
X544920Y74920D02*
Y85080D01*
X555080D01*
Y74920D01*
X544920D01*
X499200Y125720D02*
X501740Y128260D01*
X504280D01*
X501740Y130800D01*
X504280Y133340D01*
X501740D01*
X499200Y135880D01*
X496660Y133340D01*
X494120D01*
X496660Y130800D01*
X494120Y128260D01*
X496660D01*
X499200Y125720D01*
Y127752D02*
X500724Y129276D01*
X502248D01*
X500724Y130800D01*
X502248Y132324D01*
X500724D01*
X499200Y133848D01*
X497676Y132324D01*
X496152D01*
X497676Y130800D01*
X496152Y129276D01*
X497676D01*
X499200Y127752D01*
X600800Y24120D02*
X603340Y26660D01*
X605880D01*
X603340Y29200D01*
X605880Y31740D01*
X603340D01*
X600800Y34280D01*
X598260Y31740D01*
X595720D01*
X598260Y29200D01*
X595720Y26660D01*
X598260D01*
X600800Y24120D01*
Y26152D02*
X602324Y27676D01*
X603848D01*
X602324Y29200D01*
X603848Y30724D01*
X602324D01*
X600800Y32248D01*
X599276Y30724D01*
X597752D01*
X599276Y29200D01*
X597752Y27676D01*
X599276D01*
X600800Y26152D01*
X544920Y49520D02*
Y59680D01*
X555080D01*
Y49520D01*
X544920D01*
X62500Y220170D02*
X65040Y222710D01*
X67580D01*
X65040Y225250D01*
X67580Y227790D01*
X65040D01*
X62500Y230330D01*
X59960Y227790D01*
X57420D01*
X59960Y225250D01*
X57420Y222710D01*
X59960D01*
X62500Y220170D01*
Y280170D02*
X65040Y282710D01*
X67580D01*
X65040Y285250D01*
X67580Y287790D01*
X65040D01*
X62500Y290330D01*
X59960Y287790D01*
X57420D01*
X59960Y285250D01*
X57420Y282710D01*
X59960D01*
X62500Y280170D01*
Y240170D02*
X65040Y242710D01*
X67580D01*
X65040Y245250D01*
X67580Y247790D01*
X65040D01*
X62500Y250330D01*
X59960Y247790D01*
X57420D01*
X59960Y245250D01*
X57420Y242710D01*
X59960D01*
X62500Y240170D01*
Y300170D02*
X65040Y302710D01*
X67580D01*
X65040Y305250D01*
X67580Y307790D01*
X65040D01*
X62500Y310330D01*
X59960Y307790D01*
X57420D01*
X59960Y305250D01*
X57420Y302710D01*
X59960D01*
X62500Y300170D01*
Y260170D02*
X65040Y262710D01*
X67580D01*
X65040Y265250D01*
X67580Y267790D01*
X65040D01*
X62500Y270330D01*
X59960Y267790D01*
X57420D01*
X59960Y265250D01*
X57420Y262710D01*
X59960D01*
X62500Y260170D01*
Y320170D02*
X65040Y322710D01*
X67580D01*
X65040Y325250D01*
X67580Y327790D01*
X65040D01*
X62500Y330330D01*
X59960Y327790D01*
X57420D01*
X59960Y325250D01*
X57420Y322710D01*
X59960D01*
X62500Y320170D01*
X273670Y314750D02*
X278750Y319830D01*
X283830Y314750D01*
X278750Y309670D01*
X273670Y314750D01*
X451470Y263950D02*
X456550Y269030D01*
X461630Y263950D01*
X456550Y258870D01*
X451470Y263950D01*
X426070Y9950D02*
X431150Y15030D01*
X436230Y9950D01*
X431150Y4870D01*
X426070Y9950D01*
X375270Y213150D02*
X380350Y218230D01*
X385430Y213150D01*
X380350Y208070D01*
X375270Y213150D01*
Y111550D02*
X380350Y116630D01*
X385430Y111550D01*
X380350Y106470D01*
X375270Y111550D01*
X400670Y60750D02*
X405750Y65830D01*
X410830Y60750D01*
X405750Y55670D01*
X400670Y60750D01*
X375270Y9950D02*
X380350Y15030D01*
X385430Y9950D01*
X380350Y4870D01*
X375270Y9950D01*
X349870Y263950D02*
X354950Y269030D01*
X360030Y263950D01*
X354950Y258870D01*
X349870Y263950D01*
X324470Y111550D02*
X329550Y116630D01*
X334630Y111550D01*
X329550Y106470D01*
X324470Y111550D01*
X349870Y60750D02*
X354950Y65830D01*
X360030Y60750D01*
X354950Y55670D01*
X349870Y60750D01*
X324470Y9950D02*
X329550Y15030D01*
X334630Y9950D01*
X329550Y4870D01*
X324470Y9950D01*
X273670Y111550D02*
X278750Y116630D01*
X283830Y111550D01*
X278750Y106470D01*
X273670Y111550D01*
X299070Y60750D02*
X304150Y65830D01*
X309230Y60750D01*
X304150Y55670D01*
X299070Y60750D01*
X273670Y9950D02*
X278750Y15030D01*
X283830Y9950D01*
X278750Y4870D01*
X273670Y9950D01*
X222870Y213150D02*
X227950Y218230D01*
X233030Y213150D01*
X227950Y208070D01*
X222870Y213150D01*
Y9950D02*
X227950Y15030D01*
X233030Y9950D01*
X227950Y4870D01*
X222870Y9950D01*
X197470Y263950D02*
X202550Y269030D01*
X207630Y263950D01*
X202550Y258870D01*
X197470Y263950D01*
X172070Y213150D02*
X177150Y218230D01*
X182230Y213150D01*
X177150Y208070D01*
X172070Y213150D01*
X197470Y162350D02*
X202550Y167430D01*
X207630Y162350D01*
X202550Y157270D01*
X197470Y162350D01*
X172070Y111550D02*
X177150Y116630D01*
X182230Y111550D01*
X177150Y106470D01*
X172070Y111550D01*
Y9950D02*
X177150Y15030D01*
X182230Y9950D01*
X177150Y4870D01*
X172070Y9950D01*
X121270Y213150D02*
X126350Y218230D01*
X131430Y213150D01*
X126350Y208070D01*
X121270Y213150D01*
Y9950D02*
X126350Y15030D01*
X131430Y9950D01*
X126350Y4870D01*
X121270Y9950D01*
X307670Y231750D02*
X312750Y236830D01*
X317830Y231750D01*
X312750Y226670D01*
X307670Y231750D01*
X379920Y288750D02*
X385000Y293830D01*
X390080Y288750D01*
X385000Y283670D01*
X379920Y288750D01*
X272670Y274500D02*
X277750Y279580D01*
X282830Y274500D01*
X277750Y269420D01*
X272670Y274500D01*
X363670Y159750D02*
X368750Y164830D01*
X373830Y159750D01*
X368750Y154670D01*
X363670Y159750D01*
X378670Y136250D02*
X383750Y141330D01*
X388830Y136250D01*
X383750Y131170D01*
X378670Y136250D01*
X234920Y144750D02*
X240000Y149830D01*
X245080Y144750D01*
X240000Y139670D01*
X234920Y144750D01*
X446120Y18000D02*
X451200Y23080D01*
X456280Y18000D01*
X451200Y12920D01*
X446120Y18000D01*
X338920Y175000D02*
X344000Y180080D01*
X349080Y175000D01*
X344000Y169920D01*
X338920Y175000D01*
X409420Y319000D02*
X414500Y324080D01*
X419580Y319000D01*
X414500Y313920D01*
X409420Y319000D01*
X422170Y226000D02*
X427250Y231080D01*
X432330Y226000D01*
X427250Y220920D01*
X422170Y226000D01*
X406960Y271280D02*
Y268740D01*
X412040D01*
Y271280D01*
X414580D01*
Y276360D01*
X412040D01*
Y278900D01*
X406960D01*
Y276360D01*
X404420D01*
Y271280D01*
X406960D01*
Y282280D02*
Y279740D01*
X412040D01*
Y282280D01*
X414580D01*
Y287360D01*
X412040D01*
Y289900D01*
X406960D01*
Y287360D01*
X404420D01*
Y282280D01*
X406960D01*
X306010Y301760D02*
Y299220D01*
X311090D01*
Y301760D01*
X313630D01*
Y306840D01*
X311090D01*
Y309380D01*
X306010D01*
Y306840D01*
X303470D01*
Y301760D01*
X306010D01*
X294410Y301710D02*
Y299170D01*
X299490D01*
Y301710D01*
X302030D01*
Y306790D01*
X299490D01*
Y309330D01*
X294410D01*
Y306790D01*
X291870D01*
Y301710D01*
X294410D01*
Y290160D02*
Y287620D01*
X299490D01*
Y290160D01*
X302030D01*
Y295240D01*
X299490D01*
Y297780D01*
X294410D01*
Y295240D01*
X291870D01*
Y290160D01*
X294410D01*
X306010D02*
Y287620D01*
X311090D01*
Y290160D01*
X313630D01*
Y295240D01*
X311090D01*
Y297780D01*
X306010D01*
Y295240D01*
X303470D01*
Y290160D01*
X306010D01*
X300210Y295960D02*
Y293420D01*
X305290D01*
Y295960D01*
X307830D01*
Y301040D01*
X305290D01*
Y303580D01*
X300210D01*
Y301040D01*
X297670D01*
Y295960D01*
X300210D01*
X336170Y220250D02*
X341250Y225330D01*
X346330Y220250D01*
X341250Y215170D01*
X336170Y220250D01*
X267295Y222000D02*
X272375Y227080D01*
X277455Y222000D01*
X272375Y216920D01*
X267295Y222000D01*
X291920Y249000D02*
X297000Y254080D01*
X302080Y249000D01*
X297000Y243920D01*
X291920Y249000D01*
X411170Y29500D02*
X416250Y34580D01*
X421330Y29500D01*
X416250Y24420D01*
X411170Y29500D01*
X133920Y233500D02*
X139000Y238580D01*
X144080Y233500D01*
X139000Y228420D01*
X133920Y233500D01*
X307420Y190000D02*
X312500Y195080D01*
X317580Y190000D01*
X312500Y184920D01*
X307420Y190000D01*
X256170Y169000D02*
X261250Y174080D01*
X266330Y169000D01*
X261250Y163920D01*
X256170Y169000D01*
X122420Y157750D02*
X127500Y162830D01*
X132580Y157750D01*
X127500Y152670D01*
X122420Y157750D01*
X210920Y95000D02*
X216000Y100080D01*
X221080Y95000D01*
X216000Y89920D01*
X210920Y95000D01*
Y76417D02*
X216000Y81497D01*
X221080Y76417D01*
X216000Y71337D01*
X210920Y76417D01*
Y39250D02*
X216000Y44330D01*
X221080Y39250D01*
X216000Y34170D01*
X210920Y39250D01*
Y57833D02*
X216000Y62913D01*
X221080Y57833D01*
X216000Y52753D01*
X210920Y57833D01*
X190920Y69250D02*
X196000Y74330D01*
X201080Y69250D01*
X196000Y64170D01*
X190920Y69250D01*
X288170Y274250D02*
X293250Y279330D01*
X298330Y274250D01*
X293250Y269170D01*
X288170Y274250D01*
X146920Y140000D02*
X152000Y145080D01*
X157080Y140000D01*
X152000Y134920D01*
X146920Y140000D01*
X329670Y66750D02*
X334750Y71830D01*
X339830Y66750D01*
X334750Y61670D01*
X329670Y66750D01*
X238760Y334000D02*
X243840Y339080D01*
X248920Y334000D01*
X243840Y328920D01*
X238760Y334000D01*
X128670Y178000D02*
X133750Y183080D01*
X138830Y178000D01*
X133750Y172920D01*
X128670Y178000D01*
X428670Y104500D02*
X433750Y109580D01*
X438830Y104500D01*
X433750Y99420D01*
X428670Y104500D01*
X174170Y140000D02*
X179250Y145080D01*
X184330Y140000D01*
X179250Y134920D01*
X174170Y140000D01*
X301920Y146500D02*
X307000Y151580D01*
X312080Y146500D01*
X307000Y141420D01*
X301920Y146500D01*
X354420Y284500D02*
X359500Y289580D01*
X364580Y284500D01*
X359500Y279420D01*
X354420Y284500D01*
X355920Y311750D02*
X361000Y316830D01*
X366080Y311750D01*
X361000Y306670D01*
X355920Y311750D01*
X312420Y284500D02*
X317500Y289580D01*
X322580Y284500D01*
X317500Y279420D01*
X312420Y284500D01*
D93*
X318048Y128000D02*
G03*
X318048Y128000I-3048J0D01*
G01*
Y32001D02*
G03*
X318048Y32001I-3048J0D01*
G01*
M02*
