**ABCDEFGHIJKLMNOPQRSTUVWXYZabcdefghijklmnopqrstuvwxyz**************************
**PARASOLID !"#$%&'()*+,-./:;<=>?@[\]^_`{|}~0123456789**************************
**PART1;
MC=;
MC_MODEL=;
MC_ID=unknown;
OS=Windows;
OS_RELEASE=;
FRU=;
APPL=Autodesk Inventor 2025;
SITE=unknown;
USER=unknown;
FORMAT=text;
GUISE=transmit;
KEY=RING;
FILE=C:\Users\Yuhsuan Chen\Desktop\ME\Monitor blanking\Source\PCBA\Expt\RING.x_t;
DATE=2025-Jun-17 17:34:35;
**PART2;
SCH=SCH_3601204_36001;
USFLD_SIZE=0;
**PART3;
**END_OF_HEADER*****************************************************************
T51 : TRANSMIT FILE created by modeller version 360120417 SCH_3000000_300000 12
 1 69 2 3 0 0 0 0 0 0 1e3 1e-8 0 0 0 1 0 1 1 4 5 6 7 0 0 8 9 10 0 0 0 0 0 0 81 1
 2 69 11 1 12 0 0 0 13 70 3 0 4 T1 0 0 6 20 1 14 14 13 4 32 0 1 0 15 0 0 16 0 50
 5 54 0 15 17 0 0 +0 0 0 0 -1 0 0 0 1 32 6 50 0 9 18 0 0 +0 0 0 0 1 0 1 0 0 .004
5 .0039 29 7 40 0 10 19 0 0 0 .0039 19 8 1 0 1 16 0 20 V0 16 9 24 0 ?21 0 22 6 0
 0 1 18 10 23 0 23 0 24 7 ?1 17 23 0 25 26 26 10 21 9 0 27 -18 24 21 0 21 10 28
 19 ?1 17 21 0 29 30 27 24 23 9 0 26 +18 28 18 0 30 24 31 32 ?1 29 19 39 0 24 32
 7 -.0045 0 0 29 32 38 0 28 33 19 -.0045 .0045 0 29 33 37 0 31 34 32 0 .0045 .00
39 18 31 17 0 35 28 36 33 ?1 29 34 36 0 36 37 33 4286263797015735e-34 0 .0029 18
 36 12 0 38 31 39 34 ?1 29 37 35 0 39 40 34 -.0035 0 0 18 39 10 0 41 36 42 37 ?1
 29 40 34 0 42 43 37 -.0035 .0045 0 18 42 7 0 44 39 45 40 ?1 29 43 33 0 45 0 40
 4286263797015735e-34 .0045 .0029 18 45 6 0 46 42 0 43 ?1 17 46 0 47 48 48 45 49
 50 0 51 +15 47 27 0 48 52 53 17 48 0 47 46 46 42 51 54 0 0 +17 49 0 55 56 51 42
 46 50 0 48 -16 50 8 0 ?46 57 54 58 0 0 1 17 51 0 55 49 44 45 48 54 0 0 -15 55 4
 0 51 59 0 17 44 0 55 51 41 42 56 57 0 49 -16 54 5 0 ?48 50 0 60 0 0 1 32 60 41
 0 54 0 58 0 +0 .0045 0 0 -1 0 1 0 0 .0035 .0029 32 58 42 0 50 60 61 0 +0 .0045
 0 0 -1 0 1 0 0 .0035 .0029 134 61 43 0 57 58 62 0 +63 64 16 57 9 0 ?56 65 50 61
 0 0 1 32 62 44 0 65 61 66 0 +0 0 0 0 -1 0 1 0 0 .0035 .0029 136 63 1 2 3 2 1 FF
F1 67 68 69 135 64 1 0 45 6 67 -.0035 .0045 0 -.0035 0 0 127 2 68 2 2 128 2 69 -
1.285714285714286 0 16 65 11 0 ?70 71 57 62 0 0 1 32 66 45 0 71 62 72 0 +0 0 0 0
 -1 0 1 0 0 .0035 .0029 16 71 13 0 ?41 73 65 66 0 0 1 32 72 46 0 73 66 74 0 +0 .
0045 0 0 1 0 1 0 0 .0045 .0039 16 73 16 0 ?75 76 71 72 0 0 1 32 74 47 0 76 72 77
 0 +0 .0045 0 0 1 0 1 0 0 .0045 .0039 16 76 19 0 ?35 78 73 74 0 0 1 134 77 48 0
 78 74 18 0 +79 80 16 78 20 0 ?81 22 76 77 0 0 1 32 18 49 0 22 77 6 0 +0 0 0 0 1
 0 1 0 0 .0045 .0039 136 79 1 2 3 2 1 FFF1 82 83 84 135 80 1 0 45 6 82 -.0045 .0
045 0 -.0045 0 0 127 2 83 2 2 128 2 84 -1 0 16 22 22 0 ?27 9 78 18 0 0 1 17 27 0
 29 21 81 10 26 22 0 0 +15 29 15 0 85 86 0 17 81 0 29 27 87 24 30 78 0 0 +17 26
 0 25 23 23 24 27 22 0 81 -15 25 29 0 23 15 0 14 15 28 88 ?52 0 89 4 5 +0 0 52 0
 20 81 1 88 68 90 15 91 0 92 0 93 14 52 25 92 ?86 15 47 4 17 +0 0 86 15 20 15 89
 30 0 38 15 25 13 20 2 0 0 0 0 0 0 8 15 17 38 0 89 94 94 36 41 71 0 70 -17 94 0
 89 38 38 39 70 65 0 56 -17 41 0 55 44 70 39 38 71 0 94 +17 70 0 55 41 56 36 94
 65 0 0 +17 56 0 55 70 49 39 44 57 0 0 +81 1 92 65 90 52 95 0 96 88 97 14 86 14
 96 ?59 52 29 4 98 +0 0 59 52 20 50 17 53 0 52 98 5 0 +0 .0045 0 0 1 0 0 0 1 124
 98 52 0 86 99 17 0 +100 101 124 99 51 0 59 0 98 0 +102 103 126 100 FT1 2 2 9 1
 5 2 5 TFT11 4 104 105 106 107 108 125 101 0 1 -3.141592653589795 3.141592653589
795 0 1 -3.141592653589795 3.141592653589795 2 BBPPBBPP????0 0 0 0 45 72 104 -.0
045 .0045 0 1 -.003181980515339465 .003181980515339465 .002757716446627535 .7071
06781186548 0 .0045 .0039 1 .003181980515339465 .003181980515339465 .00275771644
6627535 .707106781186548 .0045 .0045 0 1 .003181980515339465 .003181980515339465
 -.002757716446627535 .707106781186548 0 .0045 -.0039 1 -.003181980515339465 .00
3181980515339465 -.002757716446627535 .707106781186548 -.0045 .0045 0 1 -.0045 0
 0 1 -.003181980515339465 0 .002757716446627535 .707106781186548 0 0 .0039 1 .00
3181980515339465 0 .002757716446627535 .707106781186548 .0045 0 0 1 .00318198051
5339465 0 -.002757716446627535 .707106781186548 0 0 -.0039 1 -.00318198051533946
5 0 -.002757716446627535 .707106781186548 -.0045 0 0 1 127 2 105 2 2 127 5 106 3
 2 2 2 3 128 2 107 0 1 128 5 108 -3.141592653589795 -1.570796326794895 0 1.57079
6326794895 3.141592653589795 14 59 3 109 ?0 86 55 4 99 +0 0 0 86 20 126 102 FT1
 2 2 9 1 5 2 5 TFT11 4 110 111 112 113 114 125 103 0 1.285714285714286 -3.141592
653589795 3.141592653589795 0 1.285714285714286 -3.141592653589795 3.14159265358
9795 2 BBPPBBPP????0 0 0 0 45 72 110 -.0035 0 0 1 -.002474873734152915 0 .002050
60966544099 .707106781186548 0 0 .0029 1 .002474873734152915 0 .0020506096654409
9 .707106781186548 .0035 0 0 1 .002474873734152915 0 -.00205060966544099 .707106
781186548 0 0 -.0029 1 -.002474873734152915 0 -.00205060966544099 .7071067811865
48 -.0035 0 0 1 -.0035 .0045 0 1 -.002474873734152915 .003181980515339465 .00205
060966544099 .707106781186548 0 .0045 .0029 1 .002474873734152915 .0031819805153
39465 .00205060966544099 .707106781186548 .0035 .0045 0 1 .002474873734152915 .0
03181980515339465 -.00205060966544099 .707106781186548 0 .0045 -.0029 1 -.002474
873734152915 .003181980515339465 -.00205060966544099 .707106781186548 -.0035 .00
45 0 1 127 2 111 2 2 127 5 112 3 2 2 2 3 128 2 113 0 1.285714285714286 128 5 114
 -3.141592653589795 -1.570796326794895 0 1.570796326794895 3.141592653589795 81
 1 109 59 90 59 115 0 0 96 116 80 1 90 117 118 8015 0 0 0 0 3 5 0 0 0 FFFFTFFFFF
FFFF2 81 2 115 58 117 59 119 109 0 120 121 122 81 1 96 62 90 86 120 0 109 92 123
 83 1 116 0 81 2 120 61 117 86 124 96 115 95 125 126 83 1 123 0 80 2 117 127 128
 8014 0 0 0 0 3 5 0 0 0 FFFFTFFFFFFFFF2 1 81 1 124 60 129 86 0 120 119 130 131 8
1 2 95 64 117 52 130 92 120 91 132 133 83 4 125 0 0 .749019607843137 .7490196078
43137 82 1 126 0 81 1 130 63 129 52 0 95 124 134 135 81 2 91 67 117 15 134 88 95
 0 136 137 83 4 132 0 0 .749019607843137 .749019607843137 82 1 133 0 81 1 134 66
 129 15 0 91 130 0 138 83 4 136 0 0 .749019607843137 .749019607843137 82 1 137 0
 80 1 129 0 139 8001 0 0 0 0 3 5 0 0 0 FFFFTFTFFFFFFF2 83 3 138 .749019607843137
 .749019607843137 .749019607843137 79 15 139 SDL/TYSA_COLOUR83 3 135 .7490196078
43137 .749019607843137 .749019607843137 81 1 119 57 129 59 0 115 0 124 140 83 3
 131 .749019607843137 .749019607843137 .749019607843137 83 3 140 .74901960784313
7 .749019607843137 .749019607843137 79 21 128 SDL/TYSA_REFLECTIVITY83 4 121 0 0
 .749019607843137 .749019607843137 82 1 122 0 79 21 118 SDL/TYSA_TRANSLUCENCY83
 1 97 0 83 1 93 0 17 87 0 29 81 85 28 35 76 0 75 -17 30 0 29 85 21 28 81 78 0 87
 -17 85 0 29 87 30 31 75 73 0 0 -17 75 0 53 35 35 28 85 73 0 0 +15 53 26 0 75 52
 0 17 35 0 53 75 75 31 87 76 0 85 +19 16 31 0 1 0 8 4 S0 74 20 14 6 0 0 141 12 1
34 91 88 2 0 0 0 0 0 0 0 0 0 0 0 0 0 0 81 1 141 55 142 1 0 12 0 0 143 81 1 12 56
 144 1 141 2 0 0 145 80 1 144 90 146 8041 0 0 0 0 3 5 0 0 0 TTTFFFFFFFFFFF2 83 1
 145 0 79 23 146 SDL/TYSA_TRANSLUCENCY_280 1 142 129 147 8040 0 0 0 0 3 5 0 0 0
 TTTFFFFFFFFFFF2 83 3 143 .749019607843137 .749019607843137 .749019607843137 79
 17 147 SDL/TYSA_COLOUR_280 1 11 148 149 8017 0 0 0 0 0 0 0 0 0 TTTTTTTTTTTTTF3
 84 6 13 Solid179 13 149 SDL/TYSA_NAME1 0 
